<svg viewBox="0 0 24 24" fill="none" xmlns="http://www.w3.org/2000/svg">
  <!-- Azalea flowering shrub - compact icon -->
  <g transform="translate(12, 12)">
    <!-- Main flowers -->
    <g transform="translate(-2, -6)">
      <circle cx="0" cy="0" r="2.5" fill="#e11d48"/>
      <circle cx="0" cy="0" r="1.8" fill="#f43f5e" opacity="0.8"/>
      <circle cx="0" cy="0" r="1" fill="#fda4af" opacity="0.6"/>
      <circle cx="0" cy="0" r="0.3" fill="#fbbf24"/>
    </g>
    
    <g transform="translate(2, -5)">
      <circle cx="0" cy="0" r="2" fill="#ec4899"/>
      <circle cx="0" cy="0" r="1.4" fill="#f9a8d4" opacity="0.8"/>
      <circle cx="0" cy="0" r="0.8" fill="#fce7f3" opacity="0.6"/>
      <circle cx="0" cy="0" r="0.2" fill="#fbbf24"/>
    </g>
    
    <g transform="translate(0, -3)">
      <circle cx="0" cy="0" r="1.8" fill="#f43f5e"/>
      <circle cx="0" cy="0" r="1.2" fill="#fda4af" opacity="0.8"/>
      <circle cx="0" cy="0" r="0.6" fill="#fecdd3" opacity="0.6"/>
    </g>
    
    <!-- Leaves -->
    <ellipse cx="-3" cy="1" rx="1.5" ry="3" fill="#16a34a" transform="rotate(-20)"/>
    <ellipse cx="3" cy="2" rx="1.5" ry="3" fill="#22c55e" transform="rotate(15)"/>
    <ellipse cx="0" cy="3" rx="1.5" ry="2.5" fill="#16a34a"/>
    
    <!-- Simple stems -->
    <line x1="-2" y1="-4" x2="-2" y2="2" stroke="#15803d" stroke-width="0.8"/>
    <line x1="2" y1="-3" x2="2" y2="2" stroke="#15803d" stroke-width="0.8"/>
    <line x1="0" y1="-1" x2="0" y2="3" stroke="#15803d" stroke-width="0.8"/>
    
    <!-- Root base -->
    <ellipse cx="0" cy="6" rx="2" ry="1" fill="#92400e" opacity="0.5"/>
  </g>
</svg>