<svg viewBox="0 0 24 24" fill="none" xmlns="http://www.w3.org/2000/svg">
  <!-- Lily flower with distinctive petals - compact icon -->
  <g transform="translate(12, 12)">
    <!-- Lily flower -->
    <g transform="translate(0, -7)">
      <!-- Six lily petals -->
      <ellipse cx="-1.8" cy="-1" rx="1.2" ry="4" fill="#f8fafc" transform="rotate(-30)" opacity="0.95"/>
      <ellipse cx="1.8" cy="-1" rx="1.2" ry="4" fill="#f8fafc" transform="rotate(30)" opacity="0.95"/>
      <ellipse cx="0" cy="-3" rx="1.2" ry="4" fill="#ffffff" opacity="0.95"/>
      <ellipse cx="-1.8" cy="2" rx="1.2" ry="4" fill="#f8fafc" transform="rotate(-150)" opacity="0.95"/>
      <ellipse cx="1.8" cy="2" rx="1.2" ry="4" fill="#f8fafc" transform="rotate(150)" opacity="0.95"/>
      <ellipse cx="0" cy="3.5" rx="1.2" ry="4" fill="#ffffff" transform="rotate(180)" opacity="0.95"/>
      
      <!-- Petal spots -->
      <g fill="#ef4444" opacity="0.7">
        <circle cx="-1.5" cy="-0.5" r="0.2"/>
        <circle cx="-1.2" cy="0.2" r="0.15"/>
        <circle cx="1.5" cy="-0.5" r="0.2"/>
        <circle cx="1.2" cy="0.2" r="0.15"/>
        <circle cx="0" cy="-2" r="0.2"/>
        <circle cx="0.3" cy="-1.5" r="0.15"/>
        <circle cx="-0.3" cy="-1.5" r="0.15"/>
      </g>
      
      <!-- Center stamens -->
      <g fill="#fbbf24">
        <rect x="-0.8" y="-0.5" width="0.2" height="1.5"/>
        <rect x="-0.4" y="-0.5" width="0.2" height="1.5"/>
        <rect x="0" y="-0.5" width="0.2" height="1.5"/>
        <rect x="0.4" y="-0.5" width="0.2" height="1.5"/>
        <rect x="0.8" y="-0.5" width="0.2" height="1.5"/>
        <!-- Anthers -->
        <ellipse cx="-0.7" cy="-0.5" rx="0.3" ry="0.2" fill="#d97706"/>
        <ellipse cx="-0.3" cy="-0.5" rx="0.3" ry="0.2" fill="#d97706"/>
        <ellipse cx="0.1" cy="-0.5" rx="0.3" ry="0.2" fill="#d97706"/>
        <ellipse cx="0.5" cy="-0.5" rx="0.3" ry="0.2" fill="#d97706"/>
        <ellipse cx="0.9" cy="-0.5" rx="0.3" ry="0.2" fill="#d97706"/>
      </g>
      
      <!-- Central pistil -->
      <rect x="-0.1" y="-0.8" width="0.2" height="2" fill="#16a34a"/>
      <circle cx="0" cy="-0.8" r="0.2" fill="#22c55e"/>
    </g>
    
    <!-- Lily stem -->
    <rect x="-0.5" y="-4" width="1" height="12" fill="#16a34a"/>
    
    <!-- Lily leaves -->
    <ellipse cx="-3" cy="0" rx="1" ry="5" fill="#22c55e" transform="rotate(-15)" opacity="0.9"/>
    <ellipse cx="3" cy="2" rx="1" ry="5" fill="#22c55e" transform="rotate(15)" opacity="0.9"/>
    <ellipse cx="0" cy="3" rx="1" ry="4" fill="#16a34a" opacity="0.9"/>
    
    <!-- Leaf veins -->
    <g stroke="#15803d" stroke-width="0.3" opacity="0.6">
      <line x1="-3" y1="-5" x2="-3" y2="5"/>
      <line x1="3" y1="-3" x2="3" y2="7"/>
      <line x1="0" y1="-1" x2="0" y2="7"/>
    </g>
    
    <!-- Bulb indication -->
    <ellipse cx="0" cy="8" rx="2" ry="1.2" fill="#92400e" opacity="0.4"/>
  </g>
</svg>