<svg viewBox="0 0 24 24" fill="none" xmlns="http://www.w3.org/2000/svg">
  <!-- Mint plant with serrated leaves - compact icon -->
  <g transform="translate(12, 12)">
    <!-- Mint stems -->
    <rect x="-0.5" y="-8" width="1" height="16" fill="#16a34a"/>
    <rect x="-2.5" y="-6" width="0.8" height="12" fill="#15803d"/>
    <rect x="1.7" y="-5" width="0.8" height="10" fill="#15803d"/>
    
    <!-- Serrated mint leaves -->
    <g fill="#22c55e">
      <!-- Main leaves with serrated edges -->
      <path d="M-3.5,-4 L-1,-6 L-1,-2 Z"/>
      <path d="M-1,-6 L1,-5.5 L-1,-2 Z"/>
      <path d="M1,-5.5 L3.5,-3 L1,-2 Z"/>
      
      <path d="M-3,-1 L-1,-3 L-1,1 Z"/>
      <path d="M-1,-3 L1,-2.5 L-1,1 Z"/>
      <path d="M1,-2.5 L3,0 L1,1 Z"/>
      
      <path d="M-2.5,2 L-1,0 L-1,4 Z"/>
      <path d="M-1,0 L1,0.5 L-1,4 Z"/>
      <path d="M1,0.5 L2.5,3 L1,4 Z"/>
    </g>
    
    <!-- Darker serrated leaves for depth -->
    <g fill="#16a34a" opacity="0.8">
      <path d="M-2.8,-3.5 L-1.5,-5 L-1.5,-1.5 Z"/>
      <path d="M2.8,-2.5 L1.5,-4 L1.5,-1 Z"/>
      <path d="M-2.3,0.5 L-1.2,-1 L-1.2,2 Z"/>
      <path d="M2.3,1.5 L1.2,-0.5 L1.2,3.5 Z"/>
    </g>
    
    <!-- Leaf veins with serrated pattern -->
    <g stroke="#15803d" stroke-width="0.3" opacity="0.7">
      <path d="M-3.5,-4 L-1,-3 L-1,-2"/>
      <path d="M3.5,-3 L1,-2.8 L1,-2"/>
      <path d="M-3,-1 L-1,-0.5 L-1,1"/>
      <path d="M3,0 L1,0.2 L1,1"/>
      <path d="M-2.5,2 L-1,2.5 L-1,4"/>
      <path d="M2.5,3 L1,3.2 L1,4"/>
    </g>
    
    <!-- Small mint flowers -->
    <g fill="#c084fc">
      <circle cx="-1" cy="-7" r="0.6"/>
      <circle cx="1" cy="-6.5" r="0.5"/>
      <circle cx="0" cy="-8.5" r="0.4"/>
    </g>
    
    <!-- Root system -->
    <ellipse cx="0" cy="7" rx="2.5" ry="1" fill="#92400e" opacity="0.4"/>
  </g>
</svg>