<svg viewBox="0 0 24 24" fill="none" xmlns="http://www.w3.org/2000/svg">
  <!-- Bell pepper plant - compact icon -->
  <g transform="translate(12, 12)">
    <!-- Main stem -->
    <rect x="-0.5" y="-8" width="1" height="16" fill="#16a34a"/>
    <rect x="-2" y="-6" width="0.8" height="12" fill="#15803d"/>
    <rect x="1.2" y="-5" width="0.8" height="10" fill="#15803d"/>
    
    <!-- Bell peppers -->
    <g transform="translate(-2, -2)">
      <!-- Red pepper -->
      <ellipse cx="0" cy="0" rx="2" ry="2.5" fill="#dc2626"/>
      <ellipse cx="0" cy="-0.5" rx="1.5" ry="1.8" fill="#ef4444" opacity="0.8"/>
      <ellipse cx="0" cy="-1" rx="1" ry="1.2" fill="#f87171" opacity="0.6"/>
      <!-- Pepper stem -->
      <rect x="-0.3" y="-2.5" width="0.6" height="1" fill="#15803d"/>
      <ellipse cx="0" cy="-2.5" rx="0.5" ry="0.3" fill="#22c55e"/>
    </g>
    
    <g transform="translate(2, 0)">
      <!-- Yellow pepper -->
      <ellipse cx="0" cy="0" rx="1.8" ry="2.3" fill="#eab308"/>
      <ellipse cx="0" cy="-0.5" rx="1.3" ry="1.6" fill="#fbbf24" opacity="0.8"/>
      <ellipse cx="0" cy="-1" rx="0.8" ry="1" fill="#fde047" opacity="0.6"/>
      <!-- Pepper stem -->
      <rect x="-0.3" y="-2.3" width="0.6" height="0.8" fill="#15803d"/>
      <ellipse cx="0" cy="-2.3" rx="0.4" ry="0.3" fill="#22c55e"/>
    </g>
    
    <g transform="translate(0, 2)">
      <!-- Green pepper -->
      <ellipse cx="0" cy="0" rx="1.6" ry="2" fill="#16a34a"/>
      <ellipse cx="0" cy="-0.4" rx="1.2" ry="1.4" fill="#22c55e" opacity="0.8"/>
      <ellipse cx="0" cy="-0.8" rx="0.8" ry="1" fill="#4ade80" opacity="0.6"/>
      <!-- Pepper stem -->
      <rect x="-0.2" y="-2" width="0.4" height="0.6" fill="#15803d"/>
      <ellipse cx="0" cy="-2" rx="0.3" ry="0.2" fill="#22c55e"/>
    </g>
    
    <!-- Pepper plant leaves -->
    <ellipse cx="-3.5" cy="-3" rx="1.2" ry="2.5" fill="#22c55e" transform="rotate(-20)" opacity="0.9"/>
    <ellipse cx="3.5" cy="-2" rx="1.2" ry="2.5" fill="#22c55e" transform="rotate(20)" opacity="0.9"/>
    <ellipse cx="0" cy="-6" rx="1.2" ry="2" fill="#16a34a" opacity="0.9"/>
    <ellipse cx="-1.5" cy="4" rx="1" ry="2" fill="#22c55e" transform="rotate(-10)" opacity="0.8"/>
    <ellipse cx="1.8" cy="5" rx="1" ry="2" fill="#22c55e" transform="rotate(10)" opacity="0.8"/>
    
    <!-- Leaf veins -->
    <g stroke="#15803d" stroke-width="0.3" opacity="0.6">
      <line x1="-3.5" y1="-5.5" x2="-3.5" y2="-0.5"/>
      <line x1="3.5" y1="-4.5" x2="3.5" y2="0.5"/>
      <line x1="0" y1="-8" x2="0" y2="-4"/>
      <line x1="-1.5" y1="2" x2="-1.5" y2="6"/>
      <line x1="1.8" y1="3" x2="1.8" y2="7"/>
    </g>
    
    <!-- Root system -->
    <ellipse cx="0" cy="8" rx="3" ry="1.5" fill="#92400e" opacity="0.4"/>
  </g>
</svg>