<svg viewBox="0 0 64 64" fill="none" xmlns="http://www.w3.org/2000/svg">
  <!-- Detailed fern for canvas -->
  <g transform="translate(32, 32)">
    <!-- Base/rhizome -->
    <ellipse cx="0" cy="16" rx="4" ry="3" fill="#166534"/>
    <ellipse cx="0" cy="14" rx="3" ry="2" fill="#15803d"/>
    
    <!-- Multiple detailed fronds -->
    <!-- Large left frond -->
    <g transform="translate(-6, 0) rotate(-40)">
      <path d="M0,0 Q-4,-8 -8,-16" stroke="#16a34a" stroke-width="2" fill="none"/>
      <!-- Detailed leaflets -->
      <ellipse cx="-1.5" cy="-2" rx="1.5" ry="2.5" fill="#22c55e" transform="rotate(-50)"/>
      <ellipse cx="1" cy="-1.5" rx="1.2" ry="2" fill="#22c55e" transform="rotate(40)"/>
      <ellipse cx="-3" cy="-5" rx="1.4" ry="2.3" fill="#22c55e" transform="rotate(-50)"/>
      <ellipse cx="2" cy="-4" rx="1.1" ry="1.8" fill="#22c55e" transform="rotate(40)"/>
      <ellipse cx="-4.5" cy="-8" rx="1.3" ry="2.1" fill="#16a34a" transform="rotate(-50)"/>
      <ellipse cx="3" cy="-7" rx="1" ry="1.6" fill="#16a34a" transform="rotate(40)"/>
      <ellipse cx="-6" cy="-11" rx="1.2" ry="1.9" fill="#16a34a" transform="rotate(-50)"/>
      <ellipse cx="4" cy="-10" rx="0.9" ry="1.4" fill="#16a34a" transform="rotate(40)"/>
      <ellipse cx="-7" cy="-14" rx="1" ry="1.5" fill="#15803d" transform="rotate(-50)"/>
      <ellipse cx="5" cy="-13" rx="0.8" ry="1.2" fill="#15803d" transform="rotate(40)"/>
    </g>
    
    <!-- Center large frond -->
    <g transform="rotate(-10)">
      <path d="M0,0 Q0,-10 0,-20" stroke="#16a34a" stroke-width="2.5" fill="none"/>
      <ellipse cx="-2" cy="-3" rx="1.8" ry="3" fill="#22c55e" transform="rotate(-70)"/>
      <ellipse cx="2" cy="-3" rx="1.8" ry="3" fill="#22c55e" transform="rotate(70)"/>
      <ellipse cx="-2.5" cy="-7" rx="1.6" ry="2.7" fill="#22c55e" transform="rotate(-70)"/>
      <ellipse cx="2.5" cy="-7" rx="1.6" ry="2.7" fill="#22c55e" transform="rotate(70)"/>
      <ellipse cx="-3" cy="-11" rx="1.4" ry="2.4" fill="#16a34a" transform="rotate(-70)"/>
      <ellipse cx="3" cy="-11" rx="1.4" ry="2.4" fill="#16a34a" transform="rotate(70)"/>
      <ellipse cx="-2.5" cy="-15" rx="1.2" ry="2" fill="#16a34a" transform="rotate(-70)"/>
      <ellipse cx="2.5" cy="-15" rx="1.2" ry="2" fill="#16a34a" transform="rotate(70)"/>
      <ellipse cx="-1.5" cy="-18" rx="1" ry="1.5" fill="#15803d" transform="rotate(-70)"/>
      <ellipse cx="1.5" cy="-18" rx="1" ry="1.5" fill="#15803d" transform="rotate(70)"/>
    </g>
    
    <!-- Large right frond -->
    <g transform="translate(6, 0) rotate(40)">
      <path d="M0,0 Q4,-8 8,-16" stroke="#16a34a" stroke-width="2" fill="none"/>
      <ellipse cx="1.5" cy="-2" rx="1.5" ry="2.5" fill="#22c55e" transform="rotate(50)"/>
      <ellipse cx="-1" cy="-1.5" rx="1.2" ry="2" fill="#22c55e" transform="rotate(-40)"/>
      <ellipse cx="3" cy="-5" rx="1.4" ry="2.3" fill="#22c55e" transform="rotate(50)"/>
      <ellipse cx="-2" cy="-4" rx="1.1" ry="1.8" fill="#22c55e" transform="rotate(-40)"/>
      <ellipse cx="4.5" cy="-8" rx="1.3" ry="2.1" fill="#16a34a" transform="rotate(50)"/>
      <ellipse cx="-3" cy="-7" rx="1" ry="1.6" fill="#16a34a" transform="rotate(-40)"/>
      <ellipse cx="6" cy="-11" rx="1.2" ry="1.9" fill="#16a34a" transform="rotate(50)"/>
      <ellipse cx="-4" cy="-10" rx="0.9" ry="1.4" fill="#16a34a" transform="rotate(-40)"/>
      <ellipse cx="7" cy="-14" rx="1" ry="1.5" fill="#15803d" transform="rotate(50)"/>
      <ellipse cx="-5" cy="-13" rx="0.8" ry="1.2" fill="#15803d" transform="rotate(-40)"/>
    </g>
    
    <!-- Smaller side fronds -->
    <g transform="translate(-12, 4) rotate(-60)">
      <path d="M0,0 Q-2,-4 -4,-8" stroke="#16a34a" stroke-width="1.5" fill="none"/>
      <ellipse cx="-1" cy="-2" rx="1" ry="1.8" fill="#22c55e" transform="rotate(-50)"/>
      <ellipse cx="-2.5" cy="-5" rx="0.9" ry="1.6" fill="#16a34a" transform="rotate(-50)"/>
      <ellipse cx="-3.5" cy="-7" rx="0.8" ry="1.4" fill="#15803d" transform="rotate(-50)"/>
    </g>
    
    <g transform="translate(12, 4) rotate(60)">
      <path d="M0,0 Q2,-4 4,-8" stroke="#16a34a" stroke-width="1.5" fill="none"/>
      <ellipse cx="1" cy="-2" rx="1" ry="1.8" fill="#22c55e" transform="rotate(50)"/>
      <ellipse cx="2.5" cy="-5" rx="0.9" ry="1.6" fill="#16a34a" transform="rotate(50)"/>
      <ellipse cx="3.5" cy="-7" rx="0.8" ry="1.4" fill="#15803d" transform="rotate(50)"/>
    </g>
  </g>
</svg>