<svg viewBox="0 0 64 64" fill="none" xmlns="http://www.w3.org/2000/svg">
  <!-- Detailed hydrangea for canvas -->
  <g transform="translate(32, 32)">
    <!-- Multiple thick stems -->
    <rect x="-1" y="-20" width="2" height="35" fill="#16a34a"/>
    <rect x="-5" y="-16" width="1.5" height="28" fill="#15803d"/>
    <rect x="3.5" y="-14" width="1.5" height="26" fill="#15803d"/>
    <rect x="-8" y="-12" width="1.2" height="22" fill="#15803d"/>
    <rect x="6.8" y="-10" width="1.2" height="20" fill="#15803d"/>
    
    <!-- Large hydrangea flower clusters */
    <g transform="translate(-6, -15)">
      <!-- Large blue cluster -->
      <circle cx="0" cy="0" r="5.5" fill="#3b82f6" opacity="0.95"/>
      <g fill="#60a5fa" opacity="0.9">
        <circle cx="-2.8" cy="-2.8" r="1.4"/>
        <circle cx="2.8" cy="-2.8" r="1.4"/>
        <circle cx="-2.8" cy="2.8" r="1.4"/>
        <circle cx="2.8" cy="2.8" r="1.4"/>
        <circle cx="0" cy="-4" r="1.2"/>
        <circle cx="0" cy="4" r="1.2"/>
        <circle cx="-4" cy="0" r="1.2"/>
        <circle cx="4" cy="0" r="1.2"/>
        <circle cx="-2" cy="-3.5" r="1"/>
        <circle cx="2" cy="-3.5" r="1"/>
        <circle cx="-2" cy="3.5" r="1"/>
        <circle cx="2" cy="3.5" r="1"/>
        <circle cx="-3.5" cy="-2" r="1"/>
        <circle cx="3.5" cy="-2" r="1"/>
        <circle cx="-3.5" cy="2" r="1"/>
        <circle cx="3.5" cy="2" r="1"/>
      </g>
      <g fill="#93c5fd" opacity="0.85">
        <circle cx="-2" cy="-2" r="0.8"/>
        <circle cx="2" cy="-2" r="0.8"/>
        <circle cx="-2" cy="2" r="0.8"/>
        <circle cx="2" cy="2" r="0.8"/>
        <circle cx="0" cy="-2.8" r="0.7"/>
        <circle cx="0" cy="2.8" r="0.7"/>
        <circle cx="-2.8" cy="0" r="0.7"/>
        <circle cx="2.8" cy="0" r="0.7"/>
        <circle cx="0" cy="0" r="0.6"/>
      </g>
      <g fill="#dbeafe" opacity="0.7">
        <circle cx="-1.4" cy="-1.4" r="0.5"/>
        <circle cx="1.4" cy="-1.4" r="0.5"/>
        <circle cx="-1.4" cy="1.4" r="0.5"/>
        <circle cx="1.4" cy="1.4" r="0.5"/>
        <circle cx="0" cy="-2" r="0.4"/>
        <circle cx="0" cy="2" r="0.4"/>
        <circle cx="-2" cy="0" r="0.4"/>
        <circle cx="2" cy="0" r="0.4"/>
      </g>
    </g>
    
    <g transform="translate(6, -10)">
      <!-- Large pink cluster -->
      <circle cx="0" cy="0" r="4.8" fill="#ec4899" opacity="0.95"/>
      <g fill="#f472b6" opacity="0.9">
        <circle cx="-2.4" cy="-2.4" r="1.2"/>
        <circle cx="2.4" cy="-2.4" r="1.2"/>
        <circle cx="-2.4" cy="2.4" r="1.2"/>
        <circle cx="2.4" cy="2.4" r="1.2"/>
        <circle cx="0" cy="-3.4" r="1"/>
        <circle cx="0" cy="3.4" r="1"/>
        <circle cx="-3.4" cy="0" r="1"/>
        <circle cx="3.4" cy="0" r="1"/>
        <circle cx="-1.7" cy="-3" r="0.8"/>
        <circle cx="1.7" cy="-3" r="0.8"/>
        <circle cx="-1.7" cy="3" r="0.8"/>
        <circle cx="1.7" cy="3" r="0.8"/>
        <circle cx="-3" cy="-1.7" r="0.8"/>
        <circle cx="3" cy="-1.7" r="0.8"/>
        <circle cx="-3" cy="1.7" r="0.8"/>
        <circle cx="3" cy="1.7" r="0.8"/>
      </g>
      <g fill="#f9a8d4" opacity="0.85">
        <circle cx="-1.7" cy="-1.7" r="0.7"/>
        <circle cx="1.7" cy="-1.7" r="0.7"/>
        <circle cx="-1.7" cy="1.7" r="0.7"/>
        <circle cx="1.7" cy="1.7" r="0.7"/>
        <circle cx="0" cy="-2.4" r="0.6"/>
        <circle cx="0" cy="2.4" r="0.6"/>
        <circle cx="-2.4" cy="0" r="0.6"/>
        <circle cx="2.4" cy="0" r="0.6"/>
        <circle cx="0" cy="0" r="0.5"/>
      </g>
      <g fill="#fce7f3" opacity="0.7">
        <circle cx="-1.2" cy="-1.2" r="0.4"/>
        <circle cx="1.2" cy="-1.2" r="0.4"/>
        <circle cx="-1.2" cy="1.2" r="0.4"/>
        <circle cx="1.2" cy="1.2" r="0.4"/>
        <circle cx="0" cy="-1.7" r="0.35"/>
        <circle cx="0" cy="1.7" r="0.35"/>
        <circle cx="-1.7" cy="0" r="0.35"/>
        <circle cx="1.7" cy="0" r="0.35"/>
      </g>
    </g>
    
    <g transform="translate(0, -5)">
      <!-- Large purple cluster -->
      <circle cx="0" cy="0" r="4.2" fill="#8b5cf6" opacity="0.95"/>
      <g fill="#a78bfa" opacity="0.9">
        <circle cx="-2.1" cy="-2.1" r="1.1"/>
        <circle cx="2.1" cy="-2.1" r="1.1"/>
        <circle cx="-2.1" cy="2.1" r="1.1"/>
        <circle cx="2.1" cy="2.1" r="1.1"/>
        <circle cx="0" cy="-3" r="0.9"/>
        <circle cx="0" cy="3" r="0.9"/>
        <circle cx="-3" cy="0" r="0.9"/>
        <circle cx="3" cy="0" r="0.9"/>
        <circle cx="-1.5" cy="-2.6" r="0.7"/>
        <circle cx="1.5" cy="-2.6" r="0.7"/>
        <circle cx="-1.5" cy="2.6" r="0.7"/>
        <circle cx="1.5" cy="2.6" r="0.7"/>
        <circle cx="-2.6" cy="-1.5" r="0.7"/>
        <circle cx="2.6" cy="-1.5" r="0.7"/>
        <circle cx="-2.6" cy="1.5" r="0.7"/>
        <circle cx="2.6" cy="1.5" r="0.7"/>
      </g>
      <g fill="#c4b5fd" opacity="0.85">
        <circle cx="-1.5" cy="-1.5" r="0.6"/>
        <circle cx="1.5" cy="-1.5" r="0.6"/>
        <circle cx="-1.5" cy="1.5" r="0.6"/>
        <circle cx="1.5" cy="1.5" r="0.6"/>
        <circle cx="0" cy="-2.1" r="0.5"/>
        <circle cx="0" cy="2.1" r="0.5"/>
        <circle cx="-2.1" cy="0" r="0.5"/>
        <circle cx="2.1" cy="0" r="0.5"/>
        <circle cx="0" cy="0" r="0.45"/>
      </g>
      <g fill="#e0e7ff" opacity="0.7">
        <circle cx="-1" cy="-1" r="0.35"/>
        <circle cx="1" cy="-1" r="0.35"/>
        <circle cx="-1" cy="1" r="0.35"/>
        <circle cx="1" cy="1" r="0.35"/>
        <circle cx="0" cy="-1.5" r="0.3"/>
        <circle cx="0" cy="1.5" r="0.3"/>
        <circle cx="-1.5" cy="0" r="0.3"/>
        <circle cx="1.5" cy="0" r="0.3"/>
      </g>
    </g>
    
    <!-- Additional smaller clusters */
    <g transform="translate(-10, -8)">
      <!-- White cluster -->
      <circle cx="0" cy="0" r="3.5" fill="#f8fafc" opacity="0.95"/>
      <g fill="#f1f5f9" opacity="0.9">
        <circle cx="-1.7" cy="-1.7" r="0.9"/>
        <circle cx="1.7" cy="-1.7" r="0.9"/>
        <circle cx="-1.7" cy="1.7" r="0.9"/>
        <circle cx="1.7" cy="1.7" r="0.9"/>
        <circle cx="0" cy="-2.5" r="0.8"/>
        <circle cx="0" cy="2.5" r="0.8"/>
        <circle cx="-2.5" cy="0" r="0.8"/>
        <circle cx="2.5" cy="0" r="0.8"/>
      </g>
      <g fill="#e2e8f0" opacity="0.8">
        <circle cx="-1.2" cy="-1.2" r="0.5"/>
        <circle cx="1.2" cy="-1.2" r="0.5"/>
        <circle cx="-1.2" cy="1.2" r="0.5"/>
        <circle cx="1.2" cy="1.2" r="0.5"/>
        <circle cx="0" cy="0" r="0.4"/>
      </g>
    </g>
    
    <g transform="translate(9, 2)">
      <!-- Light blue cluster -->
      <circle cx="0" cy="0" r="3.2" fill="#0ea5e9" opacity="0.95"/>
      <g fill="#38bdf8" opacity="0.9">
        <circle cx="-1.6" cy="-1.6" r="0.8"/>
        <circle cx="1.6" cy="-1.6" r="0.8"/>
        <circle cx="-1.6" cy="1.6" r="0.8"/>
        <circle cx="1.6" cy="1.6" r="0.8"/>
        <circle cx="0" cy="-2.2" r="0.7"/>
        <circle cx="0" cy="2.2" r="0.7"/>
        <circle cx="-2.2" cy="0" r="0.7"/>
        <circle cx="2.2" cy="0" r="0.7"/>
      </g>
      <g fill="#7dd3fc" opacity="0.8">
        <circle cx="-1.1" cy="-1.1" r="0.45"/>
        <circle cx="1.1" cy="-1.1" r="0.45"/>
        <circle cx="-1.1" cy="1.1" r="0.45"/>
        <circle cx="1.1" cy="1.1" r="0.45"/>
        <circle cx="0" cy="0" r="0.35"/>
      </g>
    </g>
    
    <!-- Large hydrangea leaves */
    <ellipse cx="-12" cy="4" rx="3.5" ry="7" fill="#22c55e" transform="rotate(-30)" opacity="0.95"/>
    <ellipse cx="12" cy="6" rx="3.5" ry="7" fill="#22c55e" transform="rotate(30)" opacity="0.95"/>
    <ellipse cx="0" cy="12" rx="3.5" ry="6" fill="#16a34a" opacity="0.95"/>
    <ellipse cx="-6" cy="10" rx="3" ry="5.5" fill="#22c55e" transform="rotate(-15)" opacity="0.9"/>
    <ellipse cx="7" cy="12" rx="3" ry="5.5" fill="#22c55e" transform="rotate(15)" opacity="0.9"/>
    
    <!-- Detailed leaf veins */
    <g stroke="#15803d" stroke-width="1" opacity="0.8">
      <line x1="-12" y1="-3" x2="-12" y2="11"/>
      <line x1="12" y1="-1" x2="12" y2="13"/>
      <line x1="0" y1="6" x2="0" y2="18"/>
      <line x1="-6" y1="4.5" x2="-6" y2="15.5"/>
      <line x1="7" y1="6.5" x2="7" y2="17.5"/>
    </g>
    
    <!-- Secondary leaf veins */
    <g stroke="#15803d" stroke-width="0.6" opacity="0.6">
      <line x1="-14" y1="0" x2="-10" y2="4"/>
      <line x1="-14" y1="8" x2="-10" y2="12"/>
      <line x1="14" y1="2" x2="10" y2="6"/>
      <line x1="14" y1="10" x2="10" y2="14"/>
      <line x1="-2" y1="8" x2="2" y2="12"/>
      <line x1="-2" y1="16" x2="2" y2="20"/>
      
      <!-- Tertiary veins */
      <line x1="-8" y1="6" x2="-4" y2="8"/>
      <line x1="-8" y1="14" x2="-4" y2="16"/>
      <line x1="9" y1="8" x2="5" y2="10"/>
      <line x1="9" y1="16" x2="5" y2="18"/>
    </g>
    
    <!-- Extensive root system */
    <ellipse cx="0" cy="20" rx="10" ry="4" fill="#92400e" opacity="0.6"/>
    <ellipse cx="-5" cy="18" rx="4" ry="2.5" fill="#92400e" opacity="0.5"/>
    <ellipse cx="6" cy="19" rx="4" ry="2.5" fill="#92400e" opacity="0.5"/>
    <ellipse cx="-8" cy="16" rx="2.5" ry="1.5" fill="#92400e" opacity="0.4"/>
    <ellipse cx="9" cy="17" rx="2.5" ry="1.5" fill="#92400e" opacity="0.4"/>
  </g>
</svg>