<svg viewBox="0 0 64 64" fill="none" xmlns="http://www.w3.org/2000/svg">
  <!-- Detailed lavender for canvas -->
  <g transform="translate(32, 32)">
    <!-- Multiple lavender spikes -->
    <ellipse cx="-6" cy="-20" rx="1" ry="12" fill="#8b5cf6"/>
    <ellipse cx="-2" cy="-22" rx="1" ry="14" fill="#a855f7"/>
    <ellipse cx="2" cy="-21" rx="1" ry="13" fill="#8b5cf6"/>
    <ellipse cx="6" cy="-19" rx="1" ry="11" fill="#7c3aed"/>
    
    <!-- Individual flowers on spikes -->
    <!-- Left spike -->
    <circle cx="-6" cy="-26" r="0.8" fill="#c084fc"/>
    <circle cx="-6" cy="-24" r="0.8" fill="#c084fc"/>
    <circle cx="-6" cy="-22" r="0.8" fill="#c084fc"/>
    <circle cx="-6" cy="-20" r="0.8" fill="#c084fc"/>
    <circle cx="-6" cy="-18" r="0.8" fill="#c084fc"/>
    <circle cx="-6" cy="-16" r="0.8" fill="#c084fc"/>
    
    <!-- Center left spike -->
    <circle cx="-2" cy="-28" r="0.8" fill="#c084fc"/>
    <circle cx="-2" cy="-26" r="0.8" fill="#c084fc"/>
    <circle cx="-2" cy="-24" r="0.8" fill="#c084fc"/>
    <circle cx="-2" cy="-22" r="0.8" fill="#c084fc"/>
    <circle cx="-2" cy="-20" r="0.8" fill="#c084fc"/>
    <circle cx="-2" cy="-18" r="0.8" fill="#c084fc"/>
    <circle cx="-2" cy="-16" r="0.8" fill="#c084fc"/>
    
    <!-- Center right spike -->
    <circle cx="2" cy="-27" r="0.8" fill="#c084fc"/>
    <circle cx="2" cy="-25" r="0.8" fill="#c084fc"/>
    <circle cx="2" cy="-23" r="0.8" fill="#c084fc"/>
    <circle cx="2" cy="-21" r="0.8" fill="#c084fc"/>
    <circle cx="2" cy="-19" r="0.8" fill="#c084fc"/>
    <circle cx="2" cy="-17" r="0.8" fill="#c084fc"/>
    
    <!-- Right spike -->
    <circle cx="6" cy="-24" r="0.8" fill="#c084fc"/>
    <circle cx="6" cy="-22" r="0.8" fill="#c084fc"/>
    <circle cx="6" cy="-20" r="0.8" fill="#c084fc"/>
    <circle cx="6" cy="-18" r="0.8" fill="#c084fc"/>
    <circle cx="6" cy="-16" r="0.8" fill="#c084fc"/>
    
    <!-- Stems -->
    <rect x="-6.5" y="-8" width="1" height="16" fill="#16a34a"/>
    <rect x="-2.5" y="-8" width="1" height="18" fill="#16a34a"/>
    <rect x="1.5" y="-8" width="1" height="17" fill="#16a34a"/>
    <rect x="5.5" y="-8" width="1" height="15" fill="#16a34a"/>
    
    <!-- Base foliage -->
    <ellipse cx="-8" cy="6" rx="4" ry="2" fill="#22c55e" transform="rotate(-30 -8 6)"/>
    <ellipse cx="8" cy="6" rx="4" ry="2" fill="#22c55e" transform="rotate(30 8 6)"/>
    <ellipse cx="-4" cy="8" rx="3" ry="1.5" fill="#16a34a" transform="rotate(-15 -4 8)"/>
    <ellipse cx="4" cy="8" rx="3" ry="1.5" fill="#16a34a" transform="rotate(15 4 8)"/>
    <ellipse cx="0" cy="10" rx="5" ry="2" fill="#22c55e"/>
  </g>
</svg>