<svg viewBox="0 0 64 64" fill="none" xmlns="http://www.w3.org/2000/svg">
  <!-- Detailed narcissus for canvas -->
  <g transform="translate(32, 32)">
    <!-- Large narcissus flower -->
    <g transform="translate(0, -18)">
      <!-- Large outer white petals -->
      <ellipse cx="-3" cy="-1" rx="3" ry="6" fill="#fefce8" transform="rotate(-30)" opacity="0.95"/>
      <ellipse cx="3" cy="-1" rx="3" ry="6" fill="#fefce8" transform="rotate(30)" opacity="0.95"/>
      <ellipse cx="0" cy="-4" rx="3" ry="6" fill="#ffffff" opacity="0.95"/>
      <ellipse cx="-2.5" cy="3" rx="3" ry="6" fill="#fefce8" transform="rotate(-60)" opacity="0.95"/>
      <ellipse cx="2.5" cy="3" rx="3" ry="6" fill="#fefce8" transform="rotate(60)" opacity="0.95"/>
      <ellipse cx="0" cy="5" rx="3" ry="6" fill="#ffffff" opacity="0.95"/>
      
      <!-- Petal texture lines -->
      <g stroke="#f3f4f6" stroke-width="0.4" opacity="0.7">
        <line x1="-3" y1="-6" x2="-3" y2="4" transform="rotate(-30)"/>
        <line x1="3" y1="-6" x2="3" y2="4" transform="rotate(30)"/>
        <line x1="0" y1="-9" x2="0" y2="1"/>
        <line x1="-2.5" y1="-2" x2="-2.5" y2="8" transform="rotate(-60)"/>
        <line x1="2.5" y1="-2" x2="2.5" y2="8" transform="rotate(60)"/>
        <line x1="0" y1="0" x2="0" y2="10"/>
      </g>
      
      <!-- Large orange/yellow center trumpet -->
      <circle cx="0" cy="0" r="4" fill="#fb923c"/>
      <circle cx="0" cy="0" r="3.2" fill="#fed7aa" opacity="0.9"/>
      <circle cx="0" cy="0" r="2.4" fill="#fbbf24" opacity="0.9"/>
      <circle cx="0" cy="0" r="1.8" fill="#f59e0b" opacity="0.8"/>
      <circle cx="0" cy="0" r="1.2" fill="#d97706"/>
      
      <!-- Center trumpet details -->
      <circle cx="0" cy="0" r="0.8" fill="#92400e"/>
      <circle cx="-0.5" cy="-0.5" r="0.3" fill="#fed7aa" opacity="0.6"/>
      
      <!-- Trumpet rim texture -->
      <circle cx="0" cy="0" r="3.8" fill="none" stroke="#f97316" stroke-width="0.6" opacity="0.8"/>
      <circle cx="0" cy="0" r="3.4" fill="none" stroke="#fb923c" stroke-width="0.4" opacity="0.6"/>
    </g>
    
    <!-- Secondary smaller flower -->
    <g transform="translate(-8, -12)">
      <ellipse cx="-1.5" cy="-0.5" rx="2" ry="4" fill="#fefce8" transform="rotate(-30)" opacity="0.9"/>
      <ellipse cx="1.5" cy="-0.5" rx="2" ry="4" fill="#fefce8" transform="rotate(30)" opacity="0.9"/>
      <ellipse cx="0" cy="-2.5" rx="2" ry="4" fill="#ffffff" opacity="0.9"/>
      <ellipse cx="-1" cy="2" rx="2" ry="4" fill="#fefce8" transform="rotate(-60)" opacity="0.9"/>
      <ellipse cx="1" cy="2" rx="2" ry="4" fill="#fefce8" transform="rotate(60)" opacity="0.9"/>
      <ellipse cx="0" cy="3" rx="2" ry="4" fill="#ffffff" opacity="0.9"/>
      
      <circle cx="0" cy="0" r="2.5" fill="#fb923c"/>
      <circle cx="0" cy="0" r="2" fill="#fed7aa" opacity="0.8"/>
      <circle cx="0" cy="0" r="1.5" fill="#fbbf24" opacity="0.9"/>
      <circle cx="0" cy="0" r="1" fill="#f59e0b"/>
      <circle cx="0" cy="0" r="0.5" fill="#d97706"/>
    </g>
    
    <!-- Thick stems -->
    <rect x="-1" y="-10" width="2" height="28" fill="#16a34a"/>
    <rect x="-9" y="-4" width="1.5" height="20" fill="#15803d"/>
    
    <!-- Large narcissus leaves -->
    <ellipse cx="-8" cy="-2" rx="2" ry="12" fill="#22c55e" transform="rotate(-15)" opacity="0.9"/>
    <ellipse cx="8" cy="2" rx="2" ry="12" fill="#22c55e" transform="rotate(15)" opacity="0.9"/>
    <ellipse cx="0" cy="6" rx="2" ry="10" fill="#16a34a" opacity="0.9"/>
    <ellipse cx="-4" cy="4" rx="1.8" ry="8" fill="#22c55e" transform="rotate(-8)" opacity="0.8"/>
    <ellipse cx="5" cy="5" rx="1.8" ry="8" fill="#22c55e" transform="rotate(8)" opacity="0.8"/>
    
    <!-- Detailed leaf veins -->
    <g stroke="#15803d" stroke-width="0.8" opacity="0.7">
      <line x1="-8" y1="-13" x2="-8" y2="9"/>
      <line x1="8" y1="-9" x2="8" y2="13"/>
      <line x1="0" y1="-4" x2="0" y2="16"/>
      <line x1="-4" y1="-4" x2="-4" y2="12"/>
      <line x1="5" y1="-3" x2="5" y2="13"/>
    </g>
    
    <!-- Secondary veins */
    <g stroke="#15803d" stroke-width="0.4" opacity="0.5">
      <line x1="-9" y1="-10" x2="-7" y2="-8"/>
      <line x1="-9" y1="-2" x2="-7" y2="0"/>
      <line x1="-9" y1="6" x2="-7" y2="8"/>
      <line x1="9" y1="-6" x2="7" y2="-4"/>
      <line x1="9" y1="2" x2="7" y2="4"/>
      <line x1="9" y1="10" x2="7" y2="12"/>
    </g>
    
    <!-- Bulb system -->
    <ellipse cx="0" cy="20" rx="5" ry="3" fill="#92400e" opacity="0.5"/>
    <ellipse cx="-3" cy="18" rx="2.5" ry="2" fill="#92400e" opacity="0.4"/>
    <ellipse cx="4" cy="19" rx="2.5" ry="2" fill="#92400e" opacity="0.4"/>
  </g>
</svg>