<svg viewBox="0 0 24 24" fill="none" xmlns="http://www.w3.org/2000/svg">
  <!-- Hydrangea with clustered flowers - compact icon -->
  <g transform="translate(12, 12)">
    <!-- Main stems -->
    <rect x="-0.4" y="-8" width="0.8" height="16" fill="#16a34a"/>
    <rect x="-2.5" y="-6" width="0.6" height="12" fill="#15803d"/>
    <rect x="1.9" y="-5" width="0.6" height="10" fill="#15803d"/>
    
    <!-- Hydrangea flower clusters -->
    <g transform="translate(-2, -6)">
      <!-- Blue cluster -->
      <circle cx="0" cy="0" r="2.5" fill="#3b82f6" opacity="0.9"/>
      <g fill="#60a5fa">
        <circle cx="-1.2" cy="-1.2" r="0.6"/>
        <circle cx="1.2" cy="-1.2" r="0.6"/>
        <circle cx="-1.2" cy="1.2" r="0.6"/>
        <circle cx="1.2" cy="1.2" r="0.6"/>
        <circle cx="0" cy="-1.8" r="0.5"/>
        <circle cx="0" cy="1.8" r="0.5"/>
        <circle cx="-1.8" cy="0" r="0.5"/>
        <circle cx="1.8" cy="0" r="0.5"/>
      </g>
      <g fill="#93c5fd" opacity="0.8">
        <circle cx="-0.8" cy="-0.8" r="0.4"/>
        <circle cx="0.8" cy="-0.8" r="0.4"/>
        <circle cx="-0.8" cy="0.8" r="0.4"/>
        <circle cx="0.8" cy="0.8" r="0.4"/>
        <circle cx="0" cy="0" r="0.3"/>
      </g>
    </g>
    
    <g transform="translate(2, -4)">
      <!-- Pink cluster -->
      <circle cx="0" cy="0" r="2.2" fill="#ec4899" opacity="0.9"/>
      <g fill="#f472b6">
        <circle cx="-1" cy="-1" r="0.5"/>
        <circle cx="1" cy="-1" r="0.5"/>
        <circle cx="-1" cy="1" r="0.5"/>
        <circle cx="1" cy="1" r="0.5"/>
        <circle cx="0" cy="-1.5" r="0.4"/>
        <circle cx="0" cy="1.5" r="0.4"/>
        <circle cx="-1.5" cy="0" r="0.4"/>
        <circle cx="1.5" cy="0" r="0.4"/>
      </g>
      <g fill="#f9a8d4" opacity="0.8">
        <circle cx="-0.7" cy="-0.7" r="0.3"/>
        <circle cx="0.7" cy="-0.7" r="0.3"/>
        <circle cx="-0.7" cy="0.7" r="0.3"/>
        <circle cx="0.7" cy="0.7" r="0.3"/>
        <circle cx="0" cy="0" r="0.25"/>
      </g>
    </g>
    
    <g transform="translate(0, -1)">
      <!-- Purple cluster -->
      <circle cx="0" cy="0" r="2" fill="#8b5cf6" opacity="0.9"/>
      <g fill="#a78bfa">
        <circle cx="-0.9" cy="-0.9" r="0.45"/>
        <circle cx="0.9" cy="-0.9" r="0.45"/>
        <circle cx="-0.9" cy="0.9" r="0.45"/>
        <circle cx="0.9" cy="0.9" r="0.45"/>
        <circle cx="0" cy="-1.3" r="0.35"/>
        <circle cx="0" cy="1.3" r="0.35"/>
        <circle cx="-1.3" cy="0" r="0.35"/>
        <circle cx="1.3" cy="0" r="0.35"/>
      </g>
      <g fill="#c4b5fd" opacity="0.8">
        <circle cx="-0.6" cy="-0.6" r="0.28"/>
        <circle cx="0.6" cy="-0.6" r="0.28"/>
        <circle cx="-0.6" cy="0.6" r="0.28"/>
        <circle cx="0.6" cy="0.6" r="0.28"/>
        <circle cx="0" cy="0" r="0.2"/>
      </g>
    </g>
    
    <!-- Large hydrangea leaves -->
    <ellipse cx="-3.5" cy="2" rx="1.8" ry="3.5" fill="#22c55e" transform="rotate(-25)" opacity="0.9"/>
    <ellipse cx="3.5" cy="3" rx="1.8" ry="3.5" fill="#22c55e" transform="rotate(25)" opacity="0.9"/>
    <ellipse cx="0" cy="5" rx="1.8" ry="3" fill="#16a34a" opacity="0.9"/>
    
    <!-- Leaf veins -->
    <g stroke="#15803d" stroke-width="0.4" opacity="0.7">
      <line x1="-3.5" y1="-1.5" x2="-3.5" y2="5.5"/>
      <line x1="3.5" y1="-0.5" x2="3.5" y2="6.5"/>
      <line x1="0" y1="2" x2="0" y2="8"/>
      <!-- Secondary veins -->
      <line x1="-4.5" y1="0" x2="-2.5" y2="2"/>
      <line x1="-4.5" y1="4" x2="-2.5" y2="6"/>
      <line x1="4.5" y1="1" x2="2.5" y2="3"/>
      <line x1="4.5" y1="5" x2="2.5" y2="7"/>
      <line x1="-1" y1="3" x2="1" y2="5"/>
      <line x1="-1" y1="7" x2="1" y2="9"/>
    </g>
    
    <!-- Root system -->
    <ellipse cx="0" cy="8" rx="3.5" ry="1.5" fill="#92400e" opacity="0.4"/>
  </g>
</svg>