<svg viewBox="0 0 48 48" fill="none" xmlns="http://www.w3.org/2000/svg">
  <!-- Simple azalea for thumbnail -->
  <g transform="translate(24, 24)">
    <!-- Simple flowers -->
    <g transform="translate(-3, -8)">
      <circle cx="0" cy="0" r="3" fill="#e11d48"/>
      <circle cx="0" cy="0" r="2" fill="#f43f5e" opacity="0.8"/>
      <circle cx="0" cy="0" r="1.2" fill="#fda4af" opacity="0.6"/>
      <circle cx="0" cy="0" r="0.4" fill="#fbbf24"/>
    </g>
    
    <g transform="translate(3, -6)">
      <circle cx="0" cy="0" r="2.5" fill="#ec4899"/>
      <circle cx="0" cy="0" r="1.8" fill="#f9a8d4" opacity="0.8"/>
      <circle cx="0" cy="0" r="1" fill="#fce7f3" opacity="0.6"/>
    </g>
    
    <g transform="translate(0, -3)">
      <circle cx="0" cy="0" r="2" fill="#f43f5e"/>
      <circle cx="0" cy="0" r="1.3" fill="#fda4af" opacity="0.8"/>
      <circle cx="0" cy="0" r="0.7" fill="#fecdd3" opacity="0.6"/>
    </g>
    
    <!-- Simple leaves -->
    <ellipse cx="-4" cy="2" rx="2" ry="4" fill="#16a34a" transform="rotate(-20)"/>
    <ellipse cx="4" cy="3" rx="2" ry="4" fill="#22c55e" transform="rotate(15)"/>
    <ellipse cx="0" cy="5" rx="2" ry="3" fill="#16a34a"/>
    
    <!-- Simple stems -->
    <line x1="-3" y1="-5" x2="-3" y2="3" stroke="#15803d" stroke-width="1"/>
    <line x1="3" y1="-3" x2="3" y2="3" stroke="#15803d" stroke-width="1"/>
    <line x1="0" y1="0" x2="0" y2="5" stroke="#15803d" stroke-width="1.2"/>
    
    <!-- Simple leaf veins -->
    <g stroke="#15803d" stroke-width="0.4" opacity="0.6">
      <line x1="-4" y1="-1" x2="-4" y2="5"/>
      <line x1="4" y1="0" x2="4" y2="6"/>
      <line x1="0" y1="3" x2="0" y2="7"/>
    </g>
    
    <!-- Root base -->
    <ellipse cx="0" cy="10" rx="3" ry="1.5" fill="#92400e" opacity="0.5"/>
  </g>
</svg>