<svg viewBox="0 0 48 48" fill="none" xmlns="http://www.w3.org/2000/svg">
  <!-- Simple lily for thumbnail -->
  <g transform="translate(24, 24)">
    <!-- Simple lily flower -->
    <g transform="translate(0, -10)">
      <!-- Six simple petals -->
      <ellipse cx="-2.5" cy="-1" rx="1.5" ry="5" fill="#f8fafc" transform="rotate(-30)" opacity="0.95"/>
      <ellipse cx="2.5" cy="-1" rx="1.5" ry="5" fill="#f8fafc" transform="rotate(30)" opacity="0.95"/>
      <ellipse cx="0" cy="-4" rx="1.5" ry="5" fill="#ffffff" opacity="0.95"/>
      <ellipse cx="-2.5" cy="3" rx="1.5" ry="5" fill="#f8fafc" transform="rotate(-150)" opacity="0.95"/>
      <ellipse cx="2.5" cy="3" rx="1.5" ry="5" fill="#f8fafc" transform="rotate(150)" opacity="0.95"/>
      <ellipse cx="0" cy="5" rx="1.5" ry="5" fill="#ffffff" transform="rotate(180)" opacity="0.95"/>
      
      <!-- Simple spots -->
      <g fill="#ef4444" opacity="0.7">
        <circle cx="-2" cy="-0.5" r="0.3"/>
        <circle cx="-1.5" cy="0.5" r="0.2"/>
        <circle cx="2" cy="-0.5" r="0.3"/>
        <circle cx="1.5" cy="0.5" r="0.2"/>
        <circle cx="0" cy="-2.5" r="0.3"/>
        <circle cx="0.4" cy="-2" r="0.2"/>
        <circle cx="-0.4" cy="-2" r="0.2"/>
      </g>
      
      <!-- Simple stamens -->
      <g fill="#fbbf24">
        <rect x="-1" y="-0.8" width="0.3" height="2"/>
        <rect x="-0.3" y="-0.8" width="0.3" height="2"/>
        <rect x="0.4" y="-0.8" width="0.3" height="2"/>
        <rect x="1.1" y="-0.8" width="0.3" height="2"/>
        <!-- Simple anthers -->
        <ellipse cx="-0.85" cy="-0.8" rx="0.4" ry="0.25" fill="#d97706"/>
        <ellipse cx="-0.15" cy="-0.8" rx="0.4" ry="0.25" fill="#d97706"/>
        <ellipse cx="0.55" cy="-0.8" rx="0.4" ry="0.25" fill="#d97706"/>
        <ellipse cx="1.25" cy="-0.8" rx="0.4" ry="0.25" fill="#d97706"/>
      </g>
      
      <!-- Simple pistil -->
      <rect x="-0.15" y="-1.2" width="0.3" height="2.5" fill="#16a34a"/>
      <circle cx="0" cy="-1.2" r="0.3" fill="#22c55e"/>
    </g>
    
    <!-- Simple stem -->
    <rect x="-0.8" y="-6" width="1.6" height="20" fill="#16a34a"/>
    
    <!-- Simple leaves -->
    <ellipse cx="-4" cy="0" rx="1.5" ry="7" fill="#22c55e" transform="rotate(-18)" opacity="0.9"/>
    <ellipse cx="4" cy="2" rx="1.5" ry="7" fill="#22c55e" transform="rotate(18)" opacity="0.9"/>
    <ellipse cx="0" cy="5" rx="1.5" ry="6" fill="#16a34a" opacity="0.9"/>
    
    <!-- Simple leaf veins -->
    <g stroke="#15803d" stroke-width="0.5" opacity="0.6">
      <line x1="-4" y1="-7" x2="-4" y2="7"/>
      <line x1="4" y1="-5" x2="4" y2="9"/>
      <line x1="0" y1="-1" x2="0" y2="11"/>
    </g>
    
    <!-- Simple bulb -->
    <ellipse cx="0" cy="16" rx="3" ry="2" fill="#92400e" opacity="0.4"/>
  </g>
</svg>