<svg viewBox="0 0 48 48" fill="none" xmlns="http://www.w3.org/2000/svg">
  <!-- Simple narcissus for thumbnail -->
  <g transform="translate(24, 24)">
    <!-- Simple narcissus flower -->
    <g transform="translate(0, -10)">
      <!-- Simple outer petals -->
      <ellipse cx="-2" cy="-0.5" rx="2" ry="4" fill="#fefce8" transform="rotate(-30)"/>
      <ellipse cx="2" cy="-0.5" rx="2" ry="4" fill="#fefce8" transform="rotate(30)"/>
      <ellipse cx="0" y="-2.5" rx="2" ry="4" fill="#ffffff"/>
      <ellipse cx="-1.5" cy="2" rx="2" ry="4" fill="#fefce8" transform="rotate(-60)"/>
      <ellipse cx="1.5" cy="2" rx="2" ry="4" fill="#fefce8" transform="rotate(60)"/>
      <ellipse cx="0" cy="3.5" rx="2" ry="4" fill="#ffffff"/>
      
      <!-- Simple center trumpet -->
      <circle cx="0" cy="0" r="2.5" fill="#fb923c"/>
      <circle cx="0" cy="0" r="2" fill="#fed7aa" opacity="0.8"/>
      <circle cx="0" cy="0" r="1.5" fill="#fbbf24" opacity="0.9"/>
      <circle cx="0" cy="0" r="1" fill="#f59e0b"/>
      <circle cx="0" cy="0" r="0.5" fill="#d97706"/>
    </g>
    
    <!-- Simple stem -->
    <rect x="-0.8" y="-6" width="1.6" height="20" fill="#16a34a"/>
    
    <!-- Simple leaves -->
    <ellipse cx="-4" cy="1" rx="1.5" ry="8" fill="#22c55e" transform="rotate(-12)"/>
    <ellipse cx="4" cy="2" rx="1.5" ry="8" fill="#22c55e" transform="rotate(12)"/>
    <ellipse cx="0" cy="4" rx="1.5" ry="7" fill="#16a34a"/>
    
    <!-- Simple leaf veins -->
    <g stroke="#15803d" stroke-width="0.5" opacity="0.6">
      <line x1="-4" y1="-6" x2="-4" y2="8"/>
      <line x1="4" y1="-5" x2="4" y2="9"/>
      <line x1="0" y1="-3" x2="0" y2="11"/>
    </g>
    
    <!-- Simple bulb -->
    <ellipse cx="0" cy="15" rx="3" ry="2" fill="#92400e" opacity="0.4"/>
  </g>
</svg>