<svg viewBox="0 0 48 48" fill="none" xmlns="http://www.w3.org/2000/svg">
  <!-- Simple thyme for thumbnail -->
  <g transform="translate(24, 24)">
    <!-- Simple stems -->
    <rect x="-0.5" y="-12" width="1" height="26" fill="#16a34a"/>
    <rect x="-2.5" y="-8" width="0.6" height="20" fill="#15803d"/>
    <rect x="1.9" y="-6" width="0.6" height="18" fill="#15803d"/>
    <rect x="-3.8" y="-4" width="0.4" height="12" fill="#15803d"/>
    <rect x="3.4" y="-3" width="0.4" height="10" fill="#15803d"/>
    
    <!-- Simple small thyme leaves */
    <g fill="#22c55e" opacity="0.9">
      <!-- Left side leaves */
      <ellipse cx="-2" cy="-7.5" rx="0.5" ry="1" transform="rotate(-22)"/>
      <ellipse cx="-1.7" cy="-6.8" rx="0.4" ry="0.8" transform="rotate(-18)"/>
      <ellipse cx="-2.3" cy="-6.1" rx="0.5" ry="1.1" transform="rotate(-26)"/>
      <ellipse cx="-1.5" cy="-5.4" rx="0.4" ry="0.7" transform="rotate(-14)"/>
      <ellipse cx="-2.1" cy="-4.7" rx="0.5" ry="0.9" transform="rotate(-24)"/>
      <ellipse cx="-1.3" cy="-4" rx="0.4" ry="0.8" transform="rotate(-10)"/>
      <ellipse cx="-1.9" cy="-3.3" rx="0.5" ry="1" transform="rotate(-20)"/>
      <ellipse cx="-1.1" cy="-2.6" rx="0.4" ry="0.7" transform="rotate(-6)"/>
      <ellipse cx="-1.7" cy="-1.9" rx="0.5" ry="0.9" transform="rotate(-18)"/>
      <ellipse cx="-0.9" cy="-1.2" rx="0.4" ry="0.8" transform="rotate(-2)"/>
      <ellipse cx="-1.5" cy="-0.5" rx="0.5" ry="1" transform="rotate(-15)"/>
      <ellipse cx="-0.7" cy="0.2" rx="0.4" ry="0.7"/>
      <ellipse cx="-1.3" cy="0.9" rx="0.5" ry="0.9" transform="rotate(-12)"/>
      <ellipse cx="-0.5" cy="1.6" rx="0.4" ry="0.8"/>
      <ellipse cx="-1.1" cy="2.3" rx="0.5" ry="1" transform="rotate(-8)"/>
      <ellipse cx="-0.3" cy="3" rx="0.4" ry="0.7"/>
    </g>
    
    <g fill="#22c55e" opacity="0.9">
      <!-- Right side leaves -->
      <ellipse cx="2" cy="-6.5" rx="0.5" ry="1" transform="rotate(22)"/>
      <ellipse cx="1.7" cy="-5.8" rx="0.4" ry="0.8" transform="rotate(18)"/>
      <ellipse cx="2.3" cy="-5.1" rx="0.5" ry="1.1" transform="rotate(26)"/>
      <ellipse cx="1.5" cy="-4.4" rx="0.4" ry="0.7" transform="rotate(14)"/>
      <ellipse cx="2.1" cy="-3.7" rx="0.5" ry="0.9" transform="rotate(24)"/>
      <ellipse cx="1.3" cy="-3" rx="0.4" ry="0.8" transform="rotate(10)"/>
      <ellipse cx="1.9" cy="-2.3" rx="0.5" ry="1" transform="rotate(20)"/>
      <ellipse cx="1.1" cy="-1.6" rx="0.4" ry="0.7" transform="rotate(6)"/>
      <ellipse cx="1.7" cy="-0.9" rx="0.5" ry="0.9" transform="rotate(18)"/>
      <ellipse cx="0.9" cy="-0.2" rx="0.4" ry="0.8" transform="rotate(2)"/>
      <ellipse cx="1.5" cy="0.5" rx="0.5" ry="1" transform="rotate(15)"/>
      <ellipse cx="0.7" cy="1.2" rx="0.4" ry="0.7"/>
      <ellipse cx="1.3" cy="1.9" rx="0.5" ry="0.9" transform="rotate(12)"/>
      <ellipse cx="0.5" cy="2.6" rx="0.4" ry="0.8"/>
      <ellipse cx="1.1" cy="3.3" rx="0.5" ry="1" transform="rotate(8)"/>
      <ellipse cx="0.3" cy="4" rx="0.4" ry="0.7"/>
    </g>
    
    <g fill="#16a34a" opacity="0.8">
      <!-- Center leaves */
      <ellipse cx="-0.5" cy="-10.5" rx="0.4" ry="0.8"/>
      <ellipse cx="0.5" cy="-10" rx="0.4" ry="0.8"/>
      <ellipse cx="-0.4" cy="-9.2" rx="0.4" ry="0.7"/>
      <ellipse cx="0.4" cy="-8.7" rx="0.4" ry="0.7"/>
      <ellipse cx="-0.3" cy="-8" rx="0.4" ry="0.8"/>
      <ellipse cx="0.3" cy="-7.5" rx="0.4" ry="0.7"/>
      <ellipse cx="-0.2" cy="-6.8" rx="0.4" ry="0.8"/>
      <ellipse cx="0.2" cy="-6.3" rx="0.4" ry="0.7"/>
      <ellipse cx="-0.1" cy="-5.6" rx="0.4" ry="0.8"/>
      <ellipse cx="0.1" cy="-5.1" rx="0.4" ry="0.7"/>
      <ellipse cx="0" cy="-4.4" rx="0.4" ry="0.8"/>
      <ellipse cx="0" cy="-3.7" rx="0.4" ry="0.7"/>
      <ellipse cx="0" cy="-3" rx="0.4" ry="0.8"/>
      <ellipse cx="0" cy="-2.3" rx="0.4" ry="0.7"/>
      <ellipse cx="0" cy="-1.6" rx="0.4" ry="0.8"/>
      <ellipse cx="0" cy="-0.9" rx="0.4" ry="0.7"/>
      <ellipse cx="0" cy="-0.2" rx="0.4" ry="0.8"/>
      <ellipse cx="0" cy="0.5" rx="0.4" ry="0.7"/>
      <ellipse cx="0" cy="1.2" rx="0.4" ry="0.8"/>
      <ellipse cx="0" cy="1.9" rx="0.4" ry="0.7"/>
      <ellipse cx="0" cy="2.6" rx="0.4" ry="0.8"/>
      <ellipse cx="0" cy="3.3" rx="0.4" ry="0.7"/>
    </g>
    
    <!-- Secondary branch leaves */
    <g fill="#4ade80" opacity="0.8">
      <ellipse cx="-3.5" cy="-3.5" rx="0.3" ry="0.6" transform="rotate(-30)"/>
      <ellipse cx="-3.3" cy="-2.8" rx="0.25" ry="0.5" transform="rotate(-25)"/>
      <ellipse cx="-3.7" cy="-2.1" rx="0.3" ry="0.6" transform="rotate(-35)"/>
      <ellipse cx="-3.4" cy="-1.4" rx="0.25" ry="0.5" transform="rotate(-20)"/>
      <ellipse cx="-3.6" cy="-0.7" rx="0.3" ry="0.6" transform="rotate(-30)"/>
      <ellipse cx="-3.2" cy="0" rx="0.25" ry="0.5" transform="rotate(-15)"/>
      
      <ellipse cx="3.5" cy="-2.5" rx="0.3" ry="0.6" transform="rotate(30)"/>
      <ellipse cx="3.3" cy="-1.8" rx="0.25" ry="0.5" transform="rotate(25)"/>
      <ellipse cx="3.7" cy="-1.1" rx="0.3" ry="0.6" transform="rotate(35)"/>
      <ellipse cx="3.4" cy="-0.4" rx="0.25" ry="0.5" transform="rotate(20)"/>
      <ellipse cx="3.6" cy="0.3" rx="0.3" ry="0.6" transform="rotate(30)"/>
      <ellipse cx="3.2" cy="1" rx="0.25" ry="0.5" transform="rotate(15)"/>
    </g>
    
    <!-- Simple flowers */
    <g fill="#ddd6fe">
      <circle cx="-2.2" cy="-7" r="0.25"/>
      <circle cx="2" cy="-6" r="0.25"/>
      <circle cx="-1.8" cy="-4.5" r="0.2"/>
      <circle cx="2.2" cy="-3.8" r="0.2"/>
      <circle cx="-1.4" cy="-2.5" r="0.2"/>
      <circle cx="1.6" cy="-1.5" r="0.2"/>
      <circle cx="-1.6" cy="-0.8" r="0.25"/>
      <circle cx="1.3" cy="0.2" r="0.2"/>
      <circle cx="-1.2" cy="1.5" r="0.2"/>
      <circle cx="1.7" cy="2.5" r="0.2"/>
    </g>
    
    <!-- Simple woody base */
    <g fill="#8b5a2b" opacity="0.7">
      <rect x="-0.6" y="8" width="1.2" height="6"/>
      <rect x="-2.8" y="6" width="0.6" height="4"/>
      <rect x="2.2" y="5" width="0.6" height="5"/>
    </g>
    
    <!-- Simple root */
    <ellipse cx="0" cy="16" rx="5" ry="1.8" fill="#92400e" opacity="0.4"/>
  </g>
</svg>