<svg viewBox="0 0 48 48" fill="none" xmlns="http://www.w3.org/2000/svg">
  <!-- Simple fern for thumbnail -->
  <g transform="translate(24, 24)">
    <!-- Simple base -->
    <ellipse cx="0" cy="12" rx="2.5" ry="2" fill="#166534"/>
    
    <!-- Simple fronds -->
    <!-- Left frond -->
    <g transform="translate(-3, 0) rotate(-35)">
      <path d="M0,0 Q-3,-6 -6,-12" stroke="#16a34a" stroke-width="1.5" fill="none"/>
      <ellipse cx="-1.5" cy="-3" rx="1.2" ry="2" fill="#22c55e" transform="rotate(-50)"/>
      <ellipse cx="-3" cy="-6" rx="1" ry="1.6" fill="#22c55e" transform="rotate(-50)"/>
      <ellipse cx="-4.5" cy="-9" rx="0.8" ry="1.3" fill="#16a34a" transform="rotate(-50)"/>
    </g>
    
    <!-- Center frond -->
    <g>
      <path d="M0,0 Q0,-8 0,-16" stroke="#16a34a" stroke-width="2" fill="none"/>
      <ellipse cx="-1.5" cy="-4" rx="1.4" ry="2.2" fill="#22c55e" transform="rotate(-70)"/>
      <ellipse cx="1.5" cy="-4" rx="1.4" ry="2.2" fill="#22c55e" transform="rotate(70)"/>
      <ellipse cx="-1.8" cy="-8" rx="1.2" ry="1.8" fill="#22c55e" transform="rotate(-70)"/>
      <ellipse cx="1.8" cy="-8" rx="1.2" ry="1.8" fill="#22c55e" transform="rotate(70)"/>
      <ellipse cx="-1.2" cy="-12" rx="1" ry="1.4" fill="#16a34a" transform="rotate(-70)"/>
      <ellipse cx="1.2" cy="-12" rx="1" ry="1.4" fill="#16a34a" transform="rotate(70)"/>
    </g>
    
    <!-- Right frond -->
    <g transform="translate(3, 0) rotate(35)">
      <path d="M0,0 Q3,-6 6,-12" stroke="#16a34a" stroke-width="1.5" fill="none"/>
      <ellipse cx="1.5" cy="-3" rx="1.2" ry="2" fill="#22c55e" transform="rotate(50)"/>
      <ellipse cx="3" cy="-6" rx="1" ry="1.6" fill="#22c55e" transform="rotate(50)"/>
      <ellipse cx="4.5" cy="-9" rx="0.8" ry="1.3" fill="#16a34a" transform="rotate(50)"/>
    </g>
  </g>
</svg>