<svg viewBox="0 0 48 48" fill="none" xmlns="http://www.w3.org/2000/svg">
  <!-- Simple lavender for thumbnail -->
  <g transform="translate(24, 24)">
    <!-- Simple spikes -->
    <ellipse cx="-3" cy="-12" rx="1" ry="8" fill="#8b5cf6"/>
    <ellipse cx="0" cy="-14" rx="1" ry="10" fill="#a855f7"/>
    <ellipse cx="3" cy="-12" rx="1" ry="8" fill="#8b5cf6"/>
    
    <!-- Simple flowers -->
    <circle cx="-3" cy="-16" r="0.5" fill="#c084fc"/>
    <circle cx="-3" cy="-14" r="0.5" fill="#c084fc"/>
    <circle cx="-3" cy="-12" r="0.5" fill="#c084fc"/>
    <circle cx="-3" cy="-10" r="0.5" fill="#c084fc"/>
    
    <circle cx="0" cy="-18" r="0.5" fill="#c084fc"/>
    <circle cx="0" cy="-16" r="0.5" fill="#c084fc"/>
    <circle cx="0" cy="-14" r="0.5" fill="#c084fc"/>
    <circle cx="0" cy="-12" r="0.5" fill="#c084fc"/>
    <circle cx="0" cy="-10" r="0.5" fill="#c084fc"/>
    
    <circle cx="3" cy="-16" r="0.5" fill="#c084fc"/>
    <circle cx="3" cy="-14" r="0.5" fill="#c084fc"/>
    <circle cx="3" cy="-12" r="0.5" fill="#c084fc"/>
    <circle cx="3" cy="-10" r="0.5" fill="#c084fc"/>
    
    <!-- Simple stems -->
    <rect x="-3.5" y="-4" width="1" height="12" fill="#16a34a"/>
    <rect x="-0.5" y="-4" width="1" height="14" fill="#16a34a"/>
    <rect x="2.5" y="-4" width="1" height="12" fill="#16a34a"/>
    
    <!-- Simple base -->
    <ellipse cx="-4" cy="8" rx="2.5" ry="1.5" fill="#22c55e" transform="rotate(-20 -4 8)"/>
    <ellipse cx="4" cy="8" rx="2.5" ry="1.5" fill="#22c55e" transform="rotate(20 4 8)"/>
  </g>
</svg>