<svg viewBox="0 0 48 48" fill="none" xmlns="http://www.w3.org/2000/svg">
  <!-- Simple mint for thumbnail -->
  <g transform="translate(24, 24)">
    <!-- Simple stems -->
    <rect x="-0.8" y="-12" width="1.6" height="26" fill="#16a34a"/>
    <rect x="-3.5" y="-8" width="1.2" height="20" fill="#15803d"/>
    <rect x="2.3" y="-6" width="1.2" height="18" fill="#15803d"/>
    
    <!-- Simple serrated leaves -->
    <g fill="#22c55e">
      <path d="M-4.5,-6 L-1.5,-9 L-1.5,-3 L-2.5,-1 L-3.5,-3.5 Z"/>
      <path d="M-1.5,-9 L1.5,-8 L-1.5,-3 L-0.5,-1 L-1,-5 Z"/>
      <path d="M1.5,-8 L4.5,-5 L1.5,-3 L2.5,-1 L3,-4 Z"/>
      
      <path d="M-3.5,0 L-1.5,-3 L-1.5,3 L-2.5,5 L-3,1.5 Z"/>
      <path d="M-1.5,-3 L1.5,-2 L-1.5,3 L-0.5,5 L-1,-0.5 Z"/>
      <path d="M1.5,-2 L3.5,1 L1.5,3 L2.5,5 L3,1.5 Z"/>
      
      <path d="M-3,6 L-1.5,3 L-1.5,9 L-2.5,11 L-2.8,7.5 Z"/>
      <path d="M-1.5,3 L1.5,4 L-1.5,9 L-0.5,11 L-1,6.5 Z"/>
      <path d="M1.5,4 L3,7 L1.5,9 L2.5,11 L2.8,7.5 Z"/>
    </g>
    
    <!-- Simple leaf veins -->
    <g stroke="#15803d" stroke-width="0.5" opacity="0.7">
      <path d="M-4.5,-6 L-2.5,-4.5 L-1.5,-3"/>
      <path d="M4.5,-5 L2.5,-3.5 L1.5,-3"/>
      <path d="M-3.5,0 L-2,1.5 L-1.5,3"/>
      <path d="M3.5,1 L2,2.5 L1.5,3"/>
      <path d="M-3,6 L-2,7.5 L-1.5,9"/>
      <path d="M3,7 L2,8.5 L1.5,9"/>
    </g>
    
    <!-- Simple flower spikes -->
    <g fill="#c084fc">
      <ellipse cx="-0.8" cy="-11" rx="1" ry="2" opacity="0.8"/>
      <ellipse cx="0.8" cy="-10" rx="0.8" ry="1.5" opacity="0.7"/>
    </g>
    
    <!-- Simple root -->
    <ellipse cx="0" cy="15" rx="4" ry="2" fill="#92400e" opacity="0.4"/>
  </g>
</svg>