<svg viewBox="0 0 48 48" fill="none" xmlns="http://www.w3.org/2000/svg">
  <!-- Simple bell pepper for thumbnail -->
  <g transform="translate(24, 24)">
    <!-- Simple stems -->
    <rect x="-0.8" y="-12" width="1.6" height="26" fill="#16a34a"/>
    <rect x="-3" y="-8" width="1.2" height="20" fill="#15803d"/>
    <rect x="1.8" y="-6" width="1.2" height="18" fill="#15803d"/>
    
    <!-- Simple bell peppers -->
    <g transform="translate(-3, -2)">
      <!-- Simple red pepper -->
      <ellipse cx="0" cy="0" rx="2.5" ry="3.5" fill="#dc2626"/>
      <ellipse cx="0" cy="-0.5" rx="2" ry="2.5" fill="#ef4444" opacity="0.8"/>
      <ellipse cx="0" cy="-1" rx="1.5" ry="1.8" fill="#f87171" opacity="0.6"/>
      <rect x="-0.4" y="-3.5" width="0.8" height="1.2" fill="#15803d"/>
      <ellipse cx="0" cy="-3.5" rx="0.6" ry="0.4" fill="#22c55e"/>
    </g>
    
    <g transform="translate(3, 0)">
      <!-- Simple yellow pepper -->
      <ellipse cx="0" cy="0" rx="2.2" ry="3.2" fill="#eab308"/>
      <ellipse cx="0" cy="-0.5" rx="1.8" ry="2.4" fill="#fbbf24" opacity="0.8"/>
      <ellipse cx="0" cy="-1" rx="1.3" ry="1.6" fill="#fde047" opacity="0.6"/>
      <rect x="-0.4" y="-3.2" width="0.8" height="1" fill="#15803d"/>
      <ellipse cx="0" cy="-3.2" rx="0.5" ry="0.3" fill="#22c55e"/>
    </g>
    
    <g transform="translate(0, 4)">
      <!-- Simple green pepper -->
      <ellipse cx="0" cy="0" rx="2" ry="2.8" fill="#16a34a"/>
      <ellipse cx="0" cy="-0.4" rx="1.6" ry="2.2" fill="#22c55e" opacity="0.8"/>
      <ellipse cx="0" cy="-0.8" rx="1.2" ry="1.6" fill="#4ade80" opacity="0.6"/>
      <rect x="-0.3" y="-2.8" width="0.6" height="0.8" fill="#15803d"/>
      <ellipse cx="0" cy="-2.8" rx="0.4" ry="0.3" fill="#22c55e"/>
    </g>
    
    <!-- Simple leaves -->
    <ellipse cx="-5" cy="-4" rx="1.5" ry="3.5" fill="#22c55e" transform="rotate(-20)"/>
    <ellipse cx="5" cy="-2" rx="1.5" ry="3.5" fill="#22c55e" transform="rotate(20)"/>
    <ellipse cx="0" cy="-9" rx="1.5" ry="3" fill="#16a34a"/>
    <ellipse cx="-2" cy="8" rx="1.2" ry="2.5" fill="#22c55e" transform="rotate(-10)"/>
    <ellipse cx="4" cy="9" rx="1.2" ry="2.5" fill="#22c55e" transform="rotate(10)"/>
    
    <!-- Simple leaf veins -->
    <g stroke="#15803d" stroke-width="0.5" opacity="0.6">
      <line x1="-5" y1="-7.5" x2="-5" y2="-0.5"/>
      <line x1="5" y1="-5.5" x2="5" y2="1.5"/>
      <line x1="0" y1="-12" x2="0" y2="-6"/>
      <line x1="-2" y1="5.5" x2="-2" y2="10.5"/>
      <line x1="4" y1="6.5" x2="4" y2="11.5"/>
    </g>
    
    <!-- Simple root -->
    <ellipse cx="0" cy="16" rx="4" ry="2" fill="#92400e" opacity="0.4"/>
  </g>
</svg>