<svg viewBox="0 0 48 48" fill="none" xmlns="http://www.w3.org/2000/svg">
  <!-- Simple rosemary for thumbnail -->
  <g transform="translate(24, 24)">
    <!-- Simple stems -->
    <rect x="-0.5" y="-12" width="1" height="26" fill="#16a34a"/>
    <rect x="-2.5" y="-8" width="0.8" height="20" fill="#15803d"/>
    <rect x="1.7" y="-6" width="0.8" height="18" fill="#15803d"/>
    
    <!-- Simple needle-like leaves -->
    <g fill="#22c55e" opacity="0.9">
      <!-- Left needles -->
      <rect x="-4.5" y="-8" width="2" height="0.4" transform="rotate(-18)"/>
      <rect x="-4.2" y="-6.5" width="1.8" height="0.4" transform="rotate(-12)"/>
      <rect x="-4.8" y="-5" width="2.2" height="0.4" transform="rotate(-22)"/>
      <rect x="-4" y="-3.5" width="1.6" height="0.4" transform="rotate(-8)"/>
      <rect x="-4.6" y="-2" width="2" height="0.4" transform="rotate(-18)"/>
      <rect x="-3.8" y="-0.5" width="1.4" height="0.4" transform="rotate(-5)"/>
      <rect x="-4.4" y="1" width="1.8" height="0.4" transform="rotate(-15)"/>
      <rect x="-3.6" y="2.5" width="1.2" height="0.4" transform="rotate(-3)"/>
      <rect x="-4.2" y="4" width="1.6" height="0.4" transform="rotate(-12)"/>
      <rect x="-3.4" y="5.5" width="1" height="0.4"/>
    </g>
    
    <g fill="#22c55e" opacity="0.9">
      <!-- Right needles -->
      <rect x="2.5" y="-7" width="2" height="0.4" transform="rotate(18)"/>
      <rect x="2.2" y="-5.5" width="1.8" height="0.4" transform="rotate(12)"/>
      <rect x="2.8" y="-4" width="2.2" height="0.4" transform="rotate(22)"/>
      <rect x="2" y="-2.5" width="1.6" height="0.4" transform="rotate(8)"/>
      <rect x="2.6" y="-1" width="2" height="0.4" transform="rotate(18)"/>
      <rect x="1.8" y="0.5" width="1.4" height="0.4" transform="rotate(5)"/>
      <rect x="2.4" y="2" width="1.8" height="0.4" transform="rotate(15)"/>
      <rect x="1.6" y="3.5" width="1.2" height="0.4" transform="rotate(3)"/>
      <rect x="2.2" y="5" width="1.6" height="0.4" transform="rotate(12)"/>
      <rect x="1.4" y="6.5" width="1" height="0.4"/>
    </g>
    
    <g fill="#16a34a" opacity="0.8">
      <!-- Center needles -->
      <rect x="-0.8" y="-10" width="1.6" height="0.4"/>
      <rect x="-0.6" y="-8.5" width="1.2" height="0.4"/>
      <rect x="-1" y="-7" width="2" height="0.4"/>
      <rect x="-0.4" y="-5.5" width="0.8" height="0.4"/>
      <rect x="-0.8" y="-4" width="1.6" height="0.4"/>
      <rect x="-0.2" y="-2.5" width="0.4" height="0.4"/>
      <rect x="-0.6" y="-1" width="1.2" height="0.4"/>
      <rect x="0" y="0.5" width="0" height="0.4"/>
      <rect x="-0.4" y="2" width="0.8" height="0.4"/>
      <rect x="0.2" y="3.5" width="-0.4" height="0.4"/>
    </g>
    
    <!-- Simple flowers -->
    <g fill="#8b5cf6">
      <circle cx="-3.5" cy="-7.5" r="0.4"/>
      <circle cx="2.8" cy="-5.8" r="0.4"/>
      <circle cx="-3.2" cy="-3" r="0.3"/>
      <circle cx="2.5" cy="-1.2" r="0.3"/>
      <circle cx="-3.8" cy="1.8" r="0.3"/>
    </g>
    
    <!-- Simple woody base -->
    <g fill="#8b5a2b" opacity="0.7">
      <rect x="-0.6" y="8" width="1.2" height="6"/>
      <rect x="-2.8" y="6" width="0.6" height="4"/>
      <rect x="2.2" y="5" width="0.6" height="5"/>
    </g>
    
    <!-- Simple root -->
    <ellipse cx="0" cy="16" rx="4" ry="1.5" fill="#92400e" opacity="0.4"/>
  </g>
</svg>