<svg viewBox="0 0 64 64" fill="none" xmlns="http://www.w3.org/2000/svg">
  <!-- Detailed azalea flowering shrub for canvas -->
  <g transform="translate(32, 32)">
    <!-- Large main flowers -->
    <g transform="translate(-4, -12)">
      <circle cx="0" cy="0" r="4.5" fill="#e11d48"/>
      <circle cx="0" cy="0" r="3.5" fill="#f43f5e" opacity="0.9"/>
      <circle cx="0" cy="0" r="2.5" fill="#fda4af" opacity="0.7"/>
      <circle cx="0" cy="0" r="1.5" fill="#fce7f3" opacity="0.5"/>
      <circle cx="0" cy="0" r="0.6" fill="#fbbf24"/>
      <!-- Petals detail -->
      <g opacity="0.3">
        <ellipse cx="-2" cy="-2" rx="1.5" ry="0.8" fill="#be185d" transform="rotate(-30)"/>
        <ellipse cx="2" cy="-2" rx="1.5" ry="0.8" fill="#be185d" transform="rotate(30)"/>
        <ellipse cx="0" cy="2.5" rx="1.5" ry="0.8" fill="#be185d"/>
      </g>
    </g>
    
    <g transform="translate(5, -10)">
      <circle cx="0" cy="0" r="3.5" fill="#ec4899"/>
      <circle cx="0" cy="0" r="2.8" fill="#f9a8d4" opacity="0.9"/>
      <circle cx="0" cy="0" r="2" fill="#fce7f3" opacity="0.7"/>
      <circle cx="0" cy="0" r="1.2" fill="#fdf2f8" opacity="0.5"/>
      <circle cx="0" cy="0" r="0.5" fill="#fbbf24"/>
      <!-- Petals detail -->
      <g opacity="0.3">
        <ellipse cx="-1.5" cy="-1.5" rx="1.2" ry="0.6" fill="#be185d" transform="rotate(-25)"/>
        <ellipse cx="1.5" cy="-1.5" rx="1.2" ry="0.6" fill="#be185d" transform="rotate(25)"/>
        <ellipse cx="0" cy="2" rx="1.2" ry="0.6" fill="#be185d"/>
      </g>
    </g>
    
    <g transform="translate(0, -6)">
      <circle cx="0" cy="0" r="3" fill="#f43f5e"/>
      <circle cx="0" cy="0" r="2.3" fill="#fda4af" opacity="0.9"/>
      <circle cx="0" cy="0" r="1.6" fill="#fecdd3" opacity="0.7"/>
      <circle cx="0" cy="0" r="1" fill="#fdf2f8" opacity="0.5"/>
      <circle cx="0" cy="0" r="0.4" fill="#fbbf24"/>
    </g>
    
    <!-- Secondary smaller flowers -->
    <g transform="translate(-6, -6)">
      <circle cx="0" cy="0" r="2.5" fill="#f472b6"/>
      <circle cx="0" cy="0" r="1.8" fill="#f9a8d4" opacity="0.8"/>
      <circle cx="0" cy="0" r="1" fill="#fce7f3" opacity="0.6"/>
    </g>
    
    <g transform="translate(3, -3)">
      <circle cx="0" cy="0" r="2" fill="#ec4899"/>
      <circle cx="0" cy="0" r="1.4" fill="#fda4af" opacity="0.8"/>
      <circle cx="0" cy="0" r="0.8" fill="#fecdd3" opacity="0.6"/>
    </g>
    
    <!-- Large leaves -->
    <ellipse cx="-8" cy="2" rx="3" ry="6" fill="#16a34a" transform="rotate(-25)" opacity="0.9"/>
    <ellipse cx="8" cy="4" rx="3" ry="6" fill="#22c55e" transform="rotate(20)" opacity="0.9"/>
    <ellipse cx="0" cy="8" rx="3" ry="5" fill="#16a34a" opacity="0.9"/>
    <ellipse cx="-3" cy="6" rx="2.5" ry="4" fill="#22c55e" transform="rotate(-10)" opacity="0.8"/>
    <ellipse cx="4" cy="7" rx="2.5" ry="4" fill="#22c55e" transform="rotate(10)" opacity="0.8"/>
    
    <!-- Detailed stems and branches -->
    <line x1="-4" y1="-8" x2="-4" y2="5" stroke="#15803d" stroke-width="1.5"/>
    <line x1="5" y1="-6" x2="5" y2="5" stroke="#15803d" stroke-width="1.2"/>
    <line x1="0" y1="-3" x2="0" y2="8" stroke="#15803d" stroke-width="1.8"/>
    <line x1="-6" y1="-3" x2="-3" y2="2" stroke="#15803d" stroke-width="1"/>
    <line x1="3" y1="0" x2="6" y2="4" stroke="#15803d" stroke-width="1"/>
    
    <!-- Leaf veins -->
    <g stroke="#15803d" stroke-width="0.5" opacity="0.6">
      <line x1="-8" y1="-3" x2="-8" y2="7"/>
      <line x1="8" y1="-1" x2="8" y2="9"/>
      <line x1="0" y1="4" x2="0" y2="12"/>
      <line x1="-3" y1="3" x2="-3" y2="9"/>
      <line x1="4" y1="4" x2="4" y2="10"/>
    </g>
    
    <!-- Root system -->
    <ellipse cx="0" cy="18" rx="6" ry="3" fill="#92400e" opacity="0.6"/>
    <ellipse cx="-3" cy="16" rx="2" ry="1.5" fill="#92400e" opacity="0.4"/>
    <ellipse cx="4" cy="17" rx="2" ry="1.5" fill="#92400e" opacity="0.4"/>
  </g>
</svg>