<svg viewBox="0 0 64 64" fill="none" xmlns="http://www.w3.org/2000/svg">
  <!-- Detailed basil plant for canvas -->
  <g transform="translate(32, 32)">
    <!-- Main stem -->
    <rect x="-1" y="-8" width="2" height="28" fill="#16a34a"/>
    
    <!-- Branch stems -->
    <rect x="-8" y="-2" width="8" height="1" fill="#16a34a"/>
    <rect x="0" y="-2" width="8" height="1" fill="#16a34a"/>
    <rect x="-6" y="6" width="6" height="1" fill="#16a34a"/>
    <rect x="0" y="6" width="6" height="1" fill="#16a34a"/>
    
    <!-- Large basil leaves with detailed shape -->
    <!-- Top tier -->
    <ellipse cx="-6" cy="-12" rx="3" ry="5" fill="#22c55e" transform="rotate(-20 -6 -12)"/>
    <ellipse cx="6" cy="-12" rx="3" ry="5" fill="#22c55e" transform="rotate(20 6 -12)"/>
    
    <!-- Upper middle tier -->
    <ellipse cx="-8" cy="-6" rx="3.5" ry="6" fill="#16a34a" transform="rotate(-25 -8 -6)"/>
    <ellipse cx="8" cy="-6" rx="3.5" ry="6" fill="#16a34a" transform="rotate(25 8 -6)"/>
    
    <!-- Lower middle tier -->
    <ellipse cx="-6" cy="2" rx="3.2" ry="5.5" fill="#15803d" transform="rotate(-15 -6 2)"/>
    <ellipse cx="6" cy="2" rx="3.2" ry="5.5" fill="#15803d" transform="rotate(15 6 2)"/>
    
    <!-- Bottom tier -->
    <ellipse cx="-4" cy="10" rx="2.8" ry="4.5" fill="#166534" transform="rotate(-10 -4 10)"/>
    <ellipse cx="4" cy="10" rx="2.8" ry="4.5" fill="#166534" transform="rotate(10 4 10)"/>
    
    <!-- Detailed leaf veins -->
    <line x1="-6" y1="-17" x2="-6" y2="-7" stroke="#15803d" stroke-width="0.5"/>
    <line x1="6" y1="-17" x2="6" y2="-7" stroke="#15803d" stroke-width="0.5"/>
    <line x1="-8" y1="-12" x2="-8" y2="0" stroke="#15803d" stroke-width="0.5"/>
    <line x1="8" y1="-12" x2="8" y2="0" stroke="#15803d" stroke-width="0.5"/>
    
    <!-- Small side veins -->
    <line x1="-7" y1="-10" x2="-5" y2="-8" stroke="#15803d" stroke-width="0.3"/>
    <line x1="-9" y1="-8" x2="-7" y2="-6" stroke="#15803d" stroke-width="0.3"/>
    <line x1="7" y1="-10" x2="5" y2="-8" stroke="#15803d" stroke-width="0.3"/>
    <line x1="9" y1="-8" x2="7" y2="-6" stroke="#15803d" stroke-width="0.3"/>
    
    <!-- Flower clusters at top -->
    <g transform="translate(0, -16)">
      <circle cx="0" cy="0" r="1" fill="#f8fafc"/>
      <circle cx="-1.5" cy="-0.5" r="0.8" fill="#f8fafc"/>
      <circle cx="1.5" cy="-0.5" r="0.8" fill="#f8fafc"/>
      <circle cx="-1" cy="1" r="0.6" fill="#f8fafc"/>
      <circle cx="1" cy="1" r="0.6" fill="#f8fafc"/>
      
      <!-- Tiny individual flowers -->
      <circle cx="-0.5" cy="-0.3" r="0.2" fill="#e2e8f0"/>
      <circle cx="0.5" cy="-0.3" r="0.2" fill="#e2e8f0"/>
      <circle cx="0" cy="0.5" r="0.2" fill="#e2e8f0"/>
    </g>
  </g>
</svg>