<svg viewBox="0 0 64 64" fill="none" xmlns="http://www.w3.org/2000/svg">
  <!-- Main flower with more detail for canvas -->
  <g transform="translate(32, 24)">
    <!-- Outer petals -->
    <circle cx="-4" cy="-2" r="6" fill="#dc2626" opacity="0.6"/>
    <circle cx="4" cy="-2" r="6" fill="#dc2626" opacity="0.6"/>
    <circle cx="0" cy="-6" r="6" fill="#ef4444" opacity="0.7"/>
    <circle cx="-3" cy="3" r="5" fill="#dc2626" opacity="0.7"/>
    <circle cx="3" cy="3" r="5" fill="#dc2626" opacity="0.7"/>
    
    <!-- Inner petals -->
    <circle cx="-2" cy="-1" r="4" fill="#ef4444" opacity="0.8"/>
    <circle cx="2" cy="-1" r="4" fill="#ef4444" opacity="0.8"/>
    <circle cx="0" cy="2" r="4" fill="#dc2626" opacity="0.8"/>
    
    <!-- Center -->
    <circle cx="0" cy="0" r="2.5" fill="#991b1b"/>
    <circle cx="0" cy="0" r="1" fill="#fbbf24" opacity="0.8"/>
  </g>
  
  <!-- Stem -->
  <rect x="31" y="32" width="2" height="28" fill="#166534"/>
  
  <!-- Leaves -->
  <ellipse cx="26" cy="40" rx="4" ry="2.5" fill="#16a34a" transform="rotate(-45 26 40)"/>
  <ellipse cx="38" cy="46" rx="4" ry="2.5" fill="#16a34a" transform="rotate(45 38 46)"/>
  <ellipse cx="24" cy="52" rx="3.5" ry="2" fill="#15803d" transform="rotate(-30 24 52)"/>
  
  <!-- Thorns -->
  <polygon points="29,38 31,40 29,42" fill="#991b1b"/>
  <polygon points="35,44 37,46 35,48" fill="#991b1b"/>
</svg>