<svg viewBox="0 0 64 64" fill="none" xmlns="http://www.w3.org/2000/svg">
  <!-- Detailed tomato plant for canvas -->
  <g transform="translate(32, 32)">
    <!-- Main stem -->
    <rect x="-1.5" y="-16" width="3" height="40" fill="#16a34a"/>
    
    <!-- Branch stems -->
    <rect x="-12" y="-8" width="12" height="1.5" fill="#16a34a"/>
    <rect x="1.5" y="-4" width="10" height="1.5" fill="#16a34a"/>
    <rect x="-8" y="4" width="8" height="1.5" fill="#16a34a"/>
    
    <!-- Tomato fruits in clusters -->
    <!-- Left cluster -->
    <circle cx="-14" cy="-12" r="4" fill="#dc2626"/>
    <circle cx="-10" cy="-10" r="3.5" fill="#ef4444"/>
    <circle cx="-12" cy="-6" r="3" fill="#f87171"/>
    
    <!-- Right cluster -->
    <circle cx="14" cy="-8" r="3.8" fill="#dc2626"/>
    <circle cx="11" cy="-4" r="3.2" fill="#ef4444"/>
    
    <!-- Lower cluster -->
    <circle cx="-10" cy="8" r="3.5" fill="#dc2626"/>
    <circle cx="-6" cy="6" r="2.8" fill="#f87171"/>
    
    <!-- Detailed calyxes -->
    <g transform="translate(-14, -12)">
      <path d="M-2,-4 L-1,-3 L0,-4 L1,-3 L2,-4" stroke="#16a34a" stroke-width="1" fill="none"/>
      <path d="M-1.5,-3.5 L0,-2.5 L1.5,-3.5" stroke="#16a34a" stroke-width="0.8" fill="none"/>
    </g>
    <g transform="translate(14, -8)">
      <path d="M-1.8,-3.8 L-0.5,-2.8 L0.5,-2.8 L1.8,-3.8" stroke="#16a34a" stroke-width="0.9" fill="none"/>
    </g>
    
    <!-- Complex compound leaves -->
    <g transform="translate(-16, -2)">
      <!-- Main leaflet -->
      <ellipse cx="0" cy="0" rx="3" ry="5" fill="#22c55e" transform="rotate(-25)"/>
      <!-- Side leaflets -->
      <ellipse cx="-2" cy="-2" rx="1.8" ry="3" fill="#16a34a" transform="rotate(-40)"/>
      <ellipse cx="2" cy="2" rx="1.8" ry="3" fill="#16a34a" transform="rotate(-10)"/>
      <ellipse cx="1" cy="-3" rx="1.5" ry="2.5" fill="#15803d" transform="rotate(-30)"/>
      <ellipse cx="-1" cy="3" rx="1.5" ry="2.5" fill="#15803d" transform="rotate(-20)"/>
    </g>
    
    <g transform="translate(16, 4)">
      <ellipse cx="0" cy="0" rx="3" ry="5" fill="#22c55e" transform="rotate(25)"/>
      <ellipse cx="-2" cy="2" rx="1.8" ry="3" fill="#16a34a" transform="rotate(10)"/>
      <ellipse cx="2" cy="-2" rx="1.8" ry="3" fill="#16a34a" transform="rotate(40)"/>
      <ellipse cx="1" cy="3" rx="1.5" ry="2.5" fill="#15803d" transform="rotate(20)"/>
      <ellipse cx="-1" cy="-3" rx="1.5" ry="2.5" fill="#15803d" transform="rotate(30)"/>
    </g>
    
    <!-- Support stakes -->
    <rect x="18" y="-20" width="1.5" height="44" fill="#92400e" opacity="0.8"/>
    <rect x="-20" y="-16" width="1.5" height="40" fill="#92400e" opacity="0.8"/>
    
    <!-- Ties -->
    <ellipse cx="0" cy="-8" rx="9" ry="0.8" fill="#4ade80" opacity="0.6"/>
    <ellipse cx="0" cy="2" rx="7" ry="0.8" fill="#4ade80" opacity="0.6"/>
  </g>
</svg>