<svg viewBox="0 0 64 64" fill="none" xmlns="http://www.w3.org/2000/svg">
  <!-- Detailed thyme for canvas -->
  <g transform="translate(32, 32)">
    <!-- Multiple woody thyme stems -->
    <rect x="-0.8" y="-22" width="1.6" height="40" fill="#16a34a"/>
    <rect x="-4" y="-18" width="1" height="34" fill="#15803d"/>
    <rect x="3" y="-16" width="1" height="30" fill="#15803d"/>
    <rect x="-7" y="-14" width="0.8" height="26" fill="#15803d"/>
    <rect x="6.2" y="-12" width="0.8" height="24" fill="#15803d"/>
    <rect x="-9.5" y="-10" width="0.6" height="20" fill="#15803d"/>
    <rect x="8.9" y="-8" width="0.6" height="18" fill="#15803d"/>
    
    <!-- Dense small thyme leaves */
    <g fill="#22c55e" opacity="0.95">
      <!-- Left dense cluster */
      <ellipse cx="-3" cy="-16" rx="0.8" ry="1.6" transform="rotate(-25)"/>
      <ellipse cx="-2.5" cy="-15" rx="0.6" ry="1.2" transform="rotate(-18)"/>
      <ellipse cx="-3.5" cy="-14.2" rx="0.8" ry="1.8" transform="rotate(-32)"/>
      <ellipse cx="-2.2" cy="-13.5" rx="0.6" ry="1" transform="rotate(-15)"/>
      <ellipse cx="-3.2" cy="-12.8" rx="0.8" ry="1.5" transform="rotate(-28)"/>
      <ellipse cx="-1.9" cy="-12.1" rx="0.6" ry="1.2" transform="rotate(-12)"/>
      <ellipse cx="-2.8" cy="-11.4" rx="0.8" ry="1.6" transform="rotate(-22)"/>
      <ellipse cx="-1.6" cy="-10.7" rx="0.6" ry="1" transform="rotate(-8)"/>
      <ellipse cx="-2.6" cy="-10" rx="0.8" ry="1.4" transform="rotate(-25)"/>
      <ellipse cx="-1.3" cy="-9.3" rx="0.6" ry="1.2" transform="rotate(-5)"/>
      <ellipse cx="-2.4" cy="-8.6" rx="0.8" ry="1.6" transform="rotate(-20)"/>
      <ellipse cx="-1.1" cy="-7.9" rx="0.6" ry="1" transform="rotate(-2)"/>
      <ellipse cx="-2.2" cy="-7.2" rx="0.8" ry="1.4" transform="rotate(-18)"/>
      <ellipse cx="-0.9" cy="-6.5" rx="0.6" ry="1.2"/>
      <ellipse cx="-2" cy="-5.8" rx="0.8" ry="1.6" transform="rotate(-15)"/>
      <ellipse cx="-0.7" cy="-5.1" rx="0.6" ry="1"/>
      <ellipse cx="-1.8" cy="-4.4" rx="0.8" ry="1.4" transform="rotate(-12)"/>
      <ellipse cx="-0.5" cy="-3.7" rx="0.6" ry="1.2"/>
      <ellipse cx="-1.6" cy="-3" rx="0.8" ry="1.6" transform="rotate(-10)"/>
      <ellipse cx="-0.3" cy="-2.3" rx="0.6" ry="1"/>
      <ellipse cx="-1.4" cy="-1.6" rx="0.8" ry="1.4" transform="rotate(-8)"/>
      <ellipse cx="-0.1" cy="-0.9" rx="0.6" ry="1.2"/>
      <ellipse cx="-1.2" cy="-0.2" rx="0.8" ry="1.6" transform="rotate(-5)"/>
      <ellipse cx="0.1" cy="0.5" rx="0.6" ry="1"/>
      <ellipse cx="-1" cy="1.2" rx="0.8" ry="1.4" transform="rotate(-3)"/>
      <ellipse cx="0.3" cy="1.9" rx="0.6" ry="1.2"/>
      <ellipse cx="-0.8" cy="2.6" rx="0.8" ry="1.6"/>
      <ellipse cx="0.5" cy="3.3" rx="0.6" ry="1"/>
    </g>
    
    <g fill="#22c55e" opacity="0.95">
      <!-- Right dense cluster */
      <ellipse cx="3" cy="-15" rx="0.8" ry="1.6" transform="rotate(25)"/>
      <ellipse cx="2.5" cy="-14" rx="0.6" ry="1.2" transform="rotate(18)"/>
      <ellipse cx="3.5" cy="-13.2" rx="0.8" ry="1.8" transform="rotate(32)"/>
      <ellipse cx="2.2" cy="-12.5" rx="0.6" ry="1" transform="rotate(15)"/>
      <ellipse cx="3.2" cy="-11.8" rx="0.8" ry="1.5" transform="rotate(28)"/>
      <ellipse cx="1.9" cy="-11.1" rx="0.6" ry="1.2" transform="rotate(12)"/>
      <ellipse cx="2.8" cy="-10.4" rx="0.8" ry="1.6" transform="rotate(22)"/>
      <ellipse cx="1.6" cy="-9.7" rx="0.6" ry="1" transform="rotate(8)"/>
      <ellipse cx="2.6" cy="-9" rx="0.8" ry="1.4" transform="rotate(25)"/>
      <ellipse cx="1.3" cy="-8.3" rx="0.6" ry="1.2" transform="rotate(5)"/>
      <ellipse cx="2.4" cy="-7.6" rx="0.8" ry="1.6" transform="rotate(20)"/>
      <ellipse cx="1.1" cy="-6.9" rx="0.6" ry="1" transform="rotate(2)"/>
      <ellipse cx="2.2" cy="-6.2" rx="0.8" ry="1.4" transform="rotate(18)"/>
      <ellipse cx="0.9" cy="-5.5" rx="0.6" ry="1.2"/>
      <ellipse cx="2" cy="-4.8" rx="0.8" ry="1.6" transform="rotate(15)"/>
      <ellipse cx="0.7" cy="-4.1" rx="0.6" ry="1"/>
      <ellipse cx="1.8" cy="-3.4" rx="0.8" ry="1.4" transform="rotate(12)"/>
      <ellipse cx="0.5" cy="-2.7" rx="0.6" ry="1.2"/>
      <ellipse cx="1.6" cy="-2" rx="0.8" ry="1.6" transform="rotate(10)"/>
      <ellipse cx="0.3" cy="-1.3" rx="0.6" ry="1"/>
      <ellipse cx="1.4" cy="-0.6" rx="0.8" ry="1.4" transform="rotate(8)"/>
      <ellipse cx="0.1" cy="0.1" rx="0.6" ry="1.2"/>
      <ellipse cx="1.2" cy="0.8" rx="0.8" ry="1.6" transform="rotate(5)"/>
      <ellipse cx="-0.1" cy="1.5" rx="0.6" ry="1"/>
      <ellipse cx="1" cy="2.2" rx="0.8" ry="1.4" transform="rotate(3)"/>
      <ellipse cx="-0.3" cy="2.9" rx="0.6" ry="1.2"/>
      <ellipse cx="0.8" cy="3.6" rx="0.8" ry="1.6"/>
      <ellipse cx="-0.5" cy="4.3" rx="0.6" ry="1"/>
    </g>
    
    <g fill="#16a34a" opacity="0.9">
      <!-- Center main stem leaves -->
      <ellipse cx="-0.8" cy="-20" rx="0.6" ry="1.2"/>
      <ellipse cx="0.8" cy="-19.2" rx="0.6" ry="1.2"/>
      <ellipse cx="-0.6" cy="-18.4" rx="0.6" ry="1"/>
      <ellipse cx="0.6" cy="-17.6" rx="0.6" ry="1"/>
      <ellipse cx="-0.4" cy="-16.8" rx="0.6" ry="1.2"/>
      <ellipse cx="0.4" cy="-16" rx="0.6" ry="1"/>
      <ellipse cx="-0.2" cy="-15.2" rx="0.6" ry="1.2"/>
      <ellipse cx="0.2" cy="-14.4" rx="0.6" ry="1"/>
      <ellipse cx="0" cy="-13.6" rx="0.6" ry="1.2"/>
      <ellipse cx="0" cy="-12.8" rx="0.6" ry="1"/>
      <ellipse cx="0" cy="-12" rx="0.6" ry="1.2"/>
      <ellipse cx="0" cy="-11.2" rx="0.6" ry="1"/>
      <ellipse cx="0" cy="-10.4" rx="0.6" ry="1.2"/>
      <ellipse cx="0" cy="-9.6" rx="0.6" ry="1"/>
      <ellipse cx="0" cy="-8.8" rx="0.6" ry="1.2"/>
      <ellipse cx="0" cy="-8" rx="0.6" ry="1"/>
      <ellipse cx="0" cy="-7.2" rx="0.6" ry="1.2"/>
      <ellipse cx="0" cy="-6.4" rx="0.6" ry="1"/>
      <ellipse cx="0" cy="-5.6" rx="0.6" ry="1.2"/>
      <ellipse cx="0" cy="-4.8" rx="0.6" ry="1"/>
      <ellipse cx="0" cy="-4" rx="0.6" ry="1.2"/>
      <ellipse cx="0" cy="-3.2" rx="0.6" ry="1"/>
      <ellipse cx="0" cy="-2.4" rx="0.6" ry="1.2"/>
      <ellipse cx="0" cy="-1.6" rx="0.6" ry="1"/>
      <ellipse cx="0" cy="-0.8" rx="0.6" ry="1.2"/>
      <ellipse cx="0" cy="0" rx="0.6" ry="1"/>
      <ellipse cx="0" cy="0.8" rx="0.6" ry="1.2"/>
      <ellipse cx="0" cy="1.6" rx="0.6" ry="1"/>
      <ellipse cx="0" cy="2.4" rx="0.6" ry="1.2"/>
      <ellipse cx="0" cy="3.2" rx="0.6" ry="1"/>
      <ellipse cx="0" cy="4" rx="0.6" ry="1.2"/>
    </g>
    
    <!-- Secondary branches with smaller leaves */
    <g fill="#4ade80" opacity="0.9">
      <!-- Far left branch */
      <ellipse cx="-6.5" cy="-12" rx="0.5" ry="1" transform="rotate(-35)"/>
      <ellipse cx="-6.2" cy="-11.2" rx="0.4" ry="0.8" transform="rotate(-30)"/>
      <ellipse cx="-6.8" cy="-10.4" rx="0.5" ry="1" transform="rotate(-40)"/>
      <ellipse cx="-6.3" cy="-9.6" rx="0.4" ry="0.8" transform="rotate(-25)"/>
      <ellipse cx="-6.6" cy="-8.8" rx="0.5" ry="1" transform="rotate(-35)"/>
      <ellipse cx="-6.1" cy="-8" rx="0.4" ry="0.8" transform="rotate(-20)"/>
      <ellipse cx="-6.4" cy="-7.2" rx="0.5" ry="1" transform="rotate(-30)"/>
      <ellipse cx="-5.9" cy="-6.4" rx="0.4" ry="0.8" transform="rotate(-15)"/>
      <ellipse cx="-6.2" cy="-5.6" rx="0.5" ry="1" transform="rotate(-25)"/>
      <ellipse cx="-5.7" cy="-4.8" rx="0.4" ry="0.8" transform="rotate(-10)"/>
      <ellipse cx="-6" cy="-4" rx="0.5" ry="1" transform="rotate(-20)"/>
      <ellipse cx="-5.5" cy="-3.2" rx="0.4" ry="0.8" transform="rotate(-5)"/>
      
      <!-- Far right branch */
      <ellipse cx="6.5" cy="-10" rx="0.5" ry="1" transform="rotate(35)"/>
      <ellipse cx="6.2" cy="-9.2" rx="0.4" ry="0.8" transform="rotate(30)"/>
      <ellipse cx="6.8" cy="-8.4" rx="0.5" ry="1" transform="rotate(40)"/>
      <ellipse cx="6.3" cy="-7.6" rx="0.4" ry="0.8" transform="rotate(25)"/>
      <ellipse cx="6.6" cy="-6.8" rx="0.5" ry="1" transform="rotate(35)"/>
      <ellipse cx="6.1" cy="-6" rx="0.4" ry="0.8" transform="rotate(20)"/>
      <ellipse cx="6.4" cy="-5.2" rx="0.5" ry="1" transform="rotate(30)"/>
      <ellipse cx="5.9" cy="-4.4" rx="0.4" ry="0.8" transform="rotate(15)"/>
      <ellipse cx="6.2" cy="-3.6" rx="0.5" ry="1" transform="rotate(25)"/>
      <ellipse cx="5.7" cy="-2.8" rx="0.4" ry="0.8" transform="rotate(10)"/>
      <ellipse cx="6" cy="-2" rx="0.5" ry="1" transform="rotate(20)"/>
      <ellipse cx="5.5" cy="-1.2" rx="0.4" ry="0.8" transform="rotate(5)"/>
      
      <!-- Outer branches */
      <ellipse cx="-9" cy="-8" rx="0.4" ry="0.8" transform="rotate(-40)"/>
      <ellipse cx="-8.7" cy="-7.2" rx="0.3" ry="0.6" transform="rotate(-35)"/>
      <ellipse cx="-9.3" cy="-6.4" rx="0.4" ry="0.8" transform="rotate(-45)"/>
      <ellipse cx="-8.8" cy="-5.6" rx="0.3" ry="0.6" transform="rotate(-30)"/>
      <ellipse cx="-9.1" cy="-4.8" rx="0.4" ry="0.8" transform="rotate(-40)"/>
      <ellipse cx="-8.6" cy="-4" rx="0.3" ry="0.6" transform="rotate(-25)"/>
      <ellipse cx="-8.9" cy="-3.2" rx="0.4" ry="0.8" transform="rotate(-35)"/>
      <ellipse cx="-8.4" cy="-2.4" rx="0.3" ry="0.6" transform="rotate(-20)"/>
      
      <ellipse cx="9" cy="-6" rx="0.4" ry="0.8" transform="rotate(40)"/>
      <ellipse cx="8.7" cy="-5.2" rx="0.3" ry="0.6" transform="rotate(35)"/>
      <ellipse cx="9.3" cy="-4.4" rx="0.4" ry="0.8" transform="rotate(45)"/>
      <ellipse cx="8.8" cy="-3.6" rx="0.3" ry="0.6" transform="rotate(30)"/>
      <ellipse cx="9.1" cy="-2.8" rx="0.4" ry="0.8" transform="rotate(40)"/>
      <ellipse cx="8.6" cy="-2" rx="0.3" ry="0.6" transform="rotate(25)"/>
      <ellipse cx="8.9" cy="-1.2" rx="0.4" ry="0.8" transform="rotate(35)"/>
      <ellipse cx="8.4" cy="-0.4" rx="0.3" ry="0.6" transform="rotate(20)"/>
    </g>
    
    <!-- Dense thyme flower clusters */
    <g fill="#ddd6fe" opacity="0.9">
      <circle cx="-3.5" cy="-15.5" r="0.4"/>
      <circle cx="-3.2" cy="-15" r="0.3"/>
      <circle cx="-3.8" cy="-14.5" r="0.35"/>
      
      <circle cx="3.5" cy="-14.5" r="0.4"/>
      <circle cx="3.2" cy="-14" r="0.3"/>
      <circle cx="3.8" cy="-13.5" r="0.35"/>
      
      <circle cx="-2.8" cy="-12.5" r="0.3"/>
      <circle cx="-2.5" cy="-12" r="0.25"/>
      <circle cx="-3.1" cy="-11.5" r="0.3"/>
      
      <circle cx="2.8" cy="-11.5" r="0.3"/>
      <circle cx="2.5" cy="-11" r="0.25"/>
      <circle cx="3.1" cy="-10.5" r="0.3"/>
      
      <circle cx="-2.2" cy="-9.5" r="0.25"/>
      <circle cx="-1.9" cy="-9" r="0.2"/>
      <circle cx="-2.5" cy="-8.5" r="0.25"/>
      
      <circle cx="2.2" cy="-8.5" r="0.25"/>
      <circle cx="1.9" cy="-8" r="0.2"/>
      <circle cx="2.5" cy="-7.5" r="0.25"/>
      
      <circle cx="-1.6" cy="-6.5" r="0.2"/>
      <circle cx="-1.3" cy="-6" r="0.15"/>
      <circle cx="-1.9" cy="-5.5" r="0.2"/>
      
      <circle cx="1.6" cy="-5.5" r="0.2"/>
      <circle cx="1.3" cy="-5" r="0.15"/>
      <circle cx="1.9" cy="-4.5" r="0.2"/>
    </g>
    
    <!-- Woody base stems */
    <g fill="#8b5a2b" opacity="0.8">
      <rect x="-1" y="12" width="2" height="8"/>
      <rect x="-4.5" y="10" width="1.2" height="6"/>
      <rect x="3.5" y="8" width="1.2" height="8"/>
      <rect x="-7.5" y="6" width="1" height="4"/>
      <rect x="6.7" y="4" width="1" height="6"/>
    </g>
    
    <!-- Extensive fine root system */
    <ellipse cx="0" cy="22" rx="10" ry="3" fill="#92400e" opacity="0.5"/>
    <ellipse cx="-5" cy="20" rx="4" ry="1.5" fill="#92400e" opacity="0.4"/>
    <ellipse cx="6" cy="21" rx="4" ry="1.5" fill="#92400e" opacity="0.4"/>
    <ellipse cx="-8" cy="18" rx="2.5" ry="1" fill="#92400e" opacity="0.3"/>
    <ellipse cx="9" cy="19" rx="2.5" ry="1" fill="#92400e" opacity="0.3"/>
    <ellipse cx="-3" cy="17" rx="2" ry="0.8" fill="#92400e" opacity="0.25"/>
    <ellipse cx="4" cy="18" rx="2" ry="0.8" fill="#92400e" opacity="0.25"/>
  </g>
</svg>